<?xml version="1.0" encoding="utf-8"?>
<!-- Generator: Adobe Illustrator 19.0.0, SVG Export Plug-In . SVG Version: 6.00 Build 0)  -->
<svg version="1.1" id="Warstwa_1" xmlns="http://www.w3.org/2000/svg" xmlns:xlink="http://www.w3.org/1999/xlink" x="0px" y="0px"
	 width="93px" height="84px" viewBox="-251 378.9 93 84" style="enable-background:new -251 378.9 93 84;" xml:space="preserve">
<style type="text/css">
	.st0{fill:#FFFFFF;}
	.st1{fill:#5C3B17;}
	.st2{fill:#FACF57;}
	.st3{fill:#E0860B;}
	.st4{fill:#FFE8AE;}
</style>
<g>
	<g>
		<g>
			<path class="st0" d="M-181.4,439.1h-17l0-7h17c1.9,0,3.6-1.6,3.6-3.6l0-11.4c0-1.9-1.6-3.6-3.6-3.6h-17l0-7h17
				c5.9,0,10.6,4.8,10.6,10.6v11.4C-170.8,434.4-175.5,439.1-181.4,439.1z"/>
			<path class="st1" d="M-181.4,440.2h-18.1l0-9.2h18.1c1.4,0,2.5-1.1,2.5-2.5l0-11.4c0-1.4-1.1-2.5-2.5-2.5h-18.1l0-9.2h18.1
				c6.5,0,11.7,5.3,11.7,11.7v11.4C-169.7,435-174.9,440.2-181.4,440.2z M-197.3,438h15.9c5.3,0,9.5-4.3,9.5-9.5l0-11.4
				c0-5.3-4.3-9.5-9.5-9.5h-15.9v4.8h15.9c2.5,0,4.7,2,4.7,4.7l0,11.4c0,2.5-2,4.7-4.7,4.7h-15.9V438z"/>
		</g>
	</g>
	<g>
		<path class="st0" d="M-232.3,428.1c0-11.6,2.9-22.3,7.8-30.6h32.1c4.9,8.3,7.8,18.9,7.8,30.6c0,9-1.8,17.6-4.9,24.8
			c-1.4,3.5-4.9,5.7-8.7,5.7h-20.6c-3.7,0-7.1-2.3-8.7-5.7C-230.5,445.7-232.3,437.2-232.3,428.1z"/>
		<path class="st1" d="M-198.1,459.8h-20.6c-4.2,0-8-2.5-9.6-6.4c-3.3-7.6-5.1-16.4-5.1-25.3c0-11.3,2.8-22.4,8-31.1l0.4-0.5h33.4
			l0.4,0.5c5.2,8.8,8,19.8,8,31.1c0,8.9-1.7,17.7-5.1,25.3C-190.2,457.3-193.9,459.8-198.1,459.8z M-223.9,398.6
			c-4.7,8.3-7.4,18.8-7.4,29.5c0,8.7,1.7,17.1,4.8,24.5c1.3,3.1,4.3,5.1,7.7,5.1h20.6c3.4,0,6.4-2,7.7-5.1
			c3.1-7.4,4.8-15.8,4.8-24.5c0-10.7-2.7-21.1-7.4-29.5H-223.9z"/>
	</g>
	<path class="st2" d="M-193.7,399.7h-29.6c-4.5,8.1-6.9,18.1-6.9,28.4c0,8.4,1.7,16.8,4.7,24l0,0c0.5,1,1.4,1.7,2.7,1.7h28.7
		c1.1,0,2.2-0.6,2.7-1.7l0,0c3.1-7.2,4.7-15.5,4.7-24C-186.7,417.9-189.2,407.9-193.7,399.7z"/>
	<path class="st3" d="M-193.7,399.7h-7c4.5,8.1,6.9,18.1,6.9,28.4c0,8.4-1.7,16.8-4.7,24c-0.2,0.6-0.6,1.2-1,1.7h5.4
		c1.1,0,2.2-0.6,2.5-1.7l0,0c3.1-7.2,4.7-15.5,4.7-24C-186.7,417.9-189.2,407.9-193.7,399.7z"/>
	<g>
		<path class="st4" d="M-217.6,428.1c0-10.2,2.4-20.4,6.9-28.4h-7c-4.5,8.1-6.9,18.1-6.9,28.4c0,5.5,0.7,10.8,2,16
			c0.4,1.4,1.8,2.5,3.3,2.5c2.2,0,3.9-2,3.4-4.2C-217.2,437.9-217.6,433.1-217.6,428.1z"/>
	</g>
	<g>
		<path class="st1" d="M-226.9,436.1c-0.1-0.6-0.6-1-1.2-1l0,0c-0.6,0.1-1.1,0.6-1,1.2c0.6,5.2,1.9,10,3.7,14.6
			c0.2,0.6,0.8,0.8,1.4,0.6l0,0c0.6-0.2,0.8-0.8,0.6-1.4C-225.1,445.7-226.3,441-226.9,436.1z"/>
		<path class="st1" d="M-222.2,401.4c-0.5-0.2-1.2-0.1-1.4,0.5c-3.6,7.4-5.7,16.3-5.9,25.2c0,0.6,0.5,1.1,1.1,1.1s1.1-0.5,1.1-1.1
			c0.1-8.7,2.2-17.2,5.7-24.2C-221.5,402.3-221.7,401.6-222.2,401.4z"/>
	</g>
	<g>
		<path class="st0" d="M-188.1,397.3c0.2-1.3,0.2-2.7-0.2-4.1c-1.1-3.4-4.1-5.9-7.7-6.1c-2-0.1-3.9,0.4-5.4,1.4
			c-2-3.3-5.7-5.4-9.8-5.4c-5.7,0-10.5,4.2-11.3,9.6c-1.4-0.7-3.1-1.1-4.8-1.1c-5.1,0.2-9.2,4.3-9.4,9.3c-0.2,5.5,4.2,10.1,9.8,10.1
			c0.8,0,1.8-0.1,2.5-0.4c1.7-0.5,3.4,0.7,3.4,2.4l0,8.3c0,2.8,2.2,4.9,4.9,4.9s4.9-2.2,4.9-4.9v-10c0-1.4,1.2-2.7,2.7-2.7h3.9
			c1.4,0,2.7,1.2,2.7,2.7v4c0,2.8,2.2,4.9,4.9,4.9s4.9-2.2,4.9-4.9v-4c0-1.4,1.2-2.7,2.7-2.7c3,0,5.7-2.2,6-5.1
			C-183,400.7-185.2,397.9-188.1,397.3z"/>
		<path class="st1" d="M-182.3,403.1C-182.3,403.1-182.4,403.1-182.3,403.1c0-0.2,0-0.5,0-0.6v-0.1c-0.2-2.5-1.8-4.7-4.1-5.7
			c0,0-0.1,0-0.1-0.1c0,0-0.1,0-0.1-0.1c0.1-1.2,0-2.4-0.4-3.6c-1.2-3.9-4.6-6.6-8.7-6.9c-1.8-0.1-3.6,0.2-5.2,1.1
			c-0.1-0.1-0.2-0.4-0.4-0.5l-0.1-0.1c-0.1-0.1-0.2-0.2-0.4-0.4c-0.1-0.1-0.1-0.2-0.2-0.2c-0.1-0.1-0.2-0.2-0.2-0.2
			c-0.2-0.2-0.4-0.4-0.6-0.6c0,0,0,0-0.1,0c-0.2-0.1-0.5-0.4-0.6-0.5c0,0-0.1,0-0.1-0.1c-1-0.7-2.2-1.3-3.4-1.7l0,0
			c-0.6-0.2-1.2-0.4-1.8-0.5c-0.1,0-0.1,0-0.2,0c-0.2,0-0.5-0.1-0.7-0.1c-0.1,0-0.1,0-0.2,0c-0.2,0-0.6,0-0.8,0
			c-5.7,0-10.6,3.9-12.1,9.3c-0.1,0-0.1,0-0.2-0.1c-0.2-0.1-0.4-0.1-0.6-0.2c-0.1,0-0.2-0.1-0.4-0.1c-0.2,0-0.4-0.1-0.6-0.1
			c-0.1,0-0.2,0-0.4-0.1c-0.2,0-0.4,0-0.6-0.1c-0.1,0-0.4,0-0.5,0c-0.1,0-0.2,0-0.4,0s-0.1,0-0.2,0c-0.1,0-0.1,0-0.2,0
			c-0.1,0-0.2,0-0.4,0s-0.4,0-0.5,0c-0.1,0-0.4,0-0.5,0.1c-0.1,0-0.4,0-0.5,0.1c-0.1,0-0.2,0.1-0.4,0.1c-0.2,0-0.4,0.1-0.6,0.1
			c-0.1,0-0.1,0-0.2,0.1c-2.8,1-4.9,3-6.1,5.7c0,0,0,0.1-0.1,0.1c-0.1,0.2-0.2,0.5-0.2,0.7c0,0.1-0.1,0.2-0.1,0.4
			c-0.1,0.2-0.1,0.4-0.1,0.6c0,0.1-0.1,0.4-0.1,0.5c0,0.1-0.1,0.4-0.1,0.5c0,0.2-0.1,0.4-0.1,0.6c0,0.1,0,0.4,0,0.5
			c0,0.1,0,0.2,0,0.4c0,0.1,0,0.1,0,0.2c0,0.1,0,0.1,0,0.2l0,0c0,2.8,1.1,5.4,3,7.5c2,2.2,4.8,3.4,7.8,3.4c1,0,1.9-0.1,2.9-0.4
			c0.5-0.1,1,0,1.4,0.2c0.4,0.2,0.6,0.7,0.6,1.2v8.3c0,3.3,2.7,6,6,6s6-2.7,6-6v-10c0-0.8,0.7-1.6,1.6-1.6h3.9
			c0.8,0,1.6,0.7,1.6,1.6v4c0,3.3,2.7,6,6,6c3.3,0,6-2.7,6-6v-4c0-0.8,0.7-1.6,1.6-1.6c3.6,0,6.6-2.7,7.1-6
			C-182.4,403.7-182.4,403.4-182.3,403.1L-182.3,403.1z M-184.6,403.8c-0.4,2.4-2.4,4.2-4.9,4.2c-2,0-3.7,1.7-3.7,3.7v4
			c0,2.2-1.7,3.9-3.9,3.9c-2.2,0-3.9-1.7-3.9-3.9v-4c0-2-1.7-3.7-3.7-3.7h-3.9c-2,0-3.7,1.7-3.7,3.7l0,10c0,2.2-1.7,3.9-3.9,3.9
			c-2.2,0-3.9-1.7-3.9-3.9v-8.3c0-1.1-0.5-2.2-1.4-2.9c-0.6-0.5-1.4-0.7-2.3-0.7c-0.4,0-0.7,0-1,0.1c-0.7,0.2-1.4,0.4-2.3,0.4
			c-2.4,0-4.6-1-6.3-2.7c-1.6-1.7-2.4-3.9-2.4-6.1c0-0.1,0-0.4,0-0.5c0-0.1,0-0.2,0-0.4c0-0.1,0-0.4,0.1-0.5c0-0.1,0-0.2,0.1-0.4
			c0-0.1,0.1-0.2,0.1-0.4c0-0.1,0.1-0.2,0.1-0.5c0-0.1,0.1-0.2,0.1-0.2c0.1-0.1,0.1-0.4,0.2-0.5c0,0,0-0.1,0.1-0.1
			c0.8-1.9,2.4-3.4,4.3-4.2l0,0c0.2-0.1,0.4-0.1,0.6-0.2c0.1,0,0.1,0,0.2-0.1c0.1,0,0.4-0.1,0.5-0.1c0.1,0,0.2-0.1,0.4-0.1
			s0.2,0,0.4-0.1c0.1,0,0.2,0,0.5-0.1c0.1,0,0.2,0,0.4,0c0.1,0,0.4,0,0.5,0h0.1c0.2,0,0.5,0,0.7,0h0.1c0.2,0,0.4,0,0.6,0.1
			c0.1,0,0.1,0,0.2,0c0.2,0,0.4,0.1,0.6,0.1c0.1,0,0.1,0,0.2,0.1c0.1,0,0.4,0.1,0.5,0.1s0.1,0.1,0.2,0.1c0.1,0.1,0.4,0.1,0.5,0.2
			c0,0,0.1,0,0.1,0.1l0,0c0.7,0.4,1.3,0.8,1.9,1.4c0.4,0.4,1.1,0.4,1.4,0l0,0c0.5-0.4,0.5-1.2,0.1-1.6c-0.6-0.5-1.2-1-1.8-1.4
			c1.1-4.7,5.3-8.1,10.1-8.1c0.2,0,0.5,0,0.7,0c0.1,0,0.1,0,0.2,0c0.2,0,0.4,0,0.6,0.1c0.1,0,0.1,0,0.2,0c0.2,0,0.4,0.1,0.6,0.1h0.1
			c0.7,0.2,1.4,0.5,2.2,0.8l0,0c0.2,0.1,0.4,0.2,0.6,0.4c0,0,0.1,0,0.1,0.1c0.1,0.1,0.4,0.2,0.5,0.4c0,0,0.1,0,0.1,0.1
			c0.1,0.1,0.4,0.2,0.5,0.4l0.1,0.1c0.1,0.1,0.2,0.2,0.5,0.4c0.1,0.1,0.4,0.4,0.5,0.5c0,0,0,0,0.1,0.1c0.1,0.1,0.2,0.2,0.4,0.5l0,0
			c0.1,0.1,0.2,0.4,0.4,0.5l0,0c0.1,0.1,0.2,0.4,0.4,0.6l0,0c0.4,0.6,0.7,1.2,1,1.9c0.2,0.5,0.7,0.8,1.3,0.7l0,0
			c0.6-0.1,1-0.8,0.7-1.4c-0.1-0.5-0.4-1-0.6-1.4c1.2-0.6,2.5-0.8,3.9-0.7c3.1,0.2,5.8,2.4,6.7,5.4c0.2,0.8,0.4,1.7,0.4,2.5
			c-0.1,0-0.2,0-0.4,0c-0.7,0-1.4,0.1-2.2,0.4c-0.6,0.2-1,1-0.6,1.6c0.2,0.5,0.7,0.7,1.2,0.5c0.5-0.1,1-0.2,1.6-0.2
			c0.4,0,0.6,0,1,0.1h0.1l0,0c0.1,0,0.2,0.1,0.4,0.1c0.1,0,0.1,0,0.2,0.1c0,0,0.1,0,0.1,0.1c1.2,0.5,2,1.4,2.5,2.5l0,0
			c0,0.1,0.1,0.2,0.1,0.4v0.1c0,0.1,0,0.2,0.1,0.4c0,0,0,0.1,0,0.2c0,0.1,0,0.1,0,0.2s0,0.1,0,0.2c0,0.1,0,0.1,0,0.2
			C-184.5,403.2-184.6,403.4-184.6,403.8z"/>
	</g>
	<path class="st1" d="M-205.2,403.7c-0.1-0.8-0.5-1.7-1-2.4c-1.8-2.7-5.2-3.4-8-1.9c-1.4-1.3-3.4-2.2-5.4-2.2c-3.9,0-7,2.9-7.5,6.5
		c-0.1,0.6,0.4,1.2,1.1,1.2h0.1c0.5,0,1-0.4,1-1c0.5-2.8,3-4.9,6-4.6c2.5,0.2,4.6,2.3,4.8,4.8c0.1,1.1-0.1,2.2-0.5,3.1
		c-0.2,0.5-0.1,1.1,0.2,1.3h0.1c0.5,0.4,1.2,0.2,1.6-0.4c0.6-1.1,0.8-2.3,0.8-3.5c0-1.3-0.4-2.5-1-3.6c1.7-0.7,3.7-0.2,4.7,1.4
		c0.4,0.5,0.5,1,0.6,1.4c0.1,0.5,0.5,0.8,1,0.8C-205.7,404.9-205.1,404.3-205.2,403.7z"/>
	<path class="st1" d="M-201.7,394c-1.3,0.2-2.4,1.1-3,2.2c-0.2,0.5-0.4,1.1-0.5,1.7c0,0.7,0.7,1.3,1.4,1.1c0.5-0.1,0.7-0.6,0.7-1
		c0-0.2,0.1-0.5,0.2-0.7c0.2-0.6,0.8-1,1.6-1.1c0.7-0.1,1.6,0.4,1.9,1.1c0.1,0.2,0.2,0.5,0.2,0.8c0,0.5,0.2,0.8,0.7,1l0,0
		c0.7,0.2,1.4-0.2,1.4-1.1c0-0.5-0.1-0.8-0.2-1.3C-197.9,394.7-199.8,393.7-201.7,394z"/>
</g>
</svg>
