<?xml version="1.0" encoding="utf-8"?>
<!-- Generator: Adobe Illustrator 19.0.0, SVG Export Plug-In . SVG Version: 6.00 Build 0)  -->
<svg version="1.1" baseProfile="tiny" id="Warstwa_1"
	 xmlns="http://www.w3.org/2000/svg" xmlns:xlink="http://www.w3.org/1999/xlink" x="0px" y="0px" width="93px" height="84px"
	 viewBox="-251 378.9 93 84" xml:space="preserve">
<g>
	<g>
		<path fill="#3D446B" d="M-180.9,412c2.1,0,7.9,1.9,8.7,6.5c0.8,4.6-3.9,12.1-9.9,9.8c-6-2.3-7.7-7.2-6.4-10.2
			C-187.2,415.2-184.8,412-180.9,412z"/>
		<path fill="#1B1F3E" d="M-177.9,414c0,0-0.8-2.6-1.2-2.7c-0.5-0.1,0.3,2.5-0.2,2.8c-0.4,0.3-2.9,0.7-3,1c-0.2,0.4,3.3,0.3,3.4,0.8
			c0.1,0.5,0.1,2.4,0.1,2.4s1.4-2,2.1-1.8c0.7,0.2,1.5,1.3,2,1.1c0.5-0.2-2-2.6-2-2.6s2.6-1.5,1.9-2.2
			C-175.4,412.3-177.9,414-177.9,414z"/>
		<g>
			<path fill="#1B1F3E" d="M-186.8,418.9c-0.2,1-0.5,2,0.2,2.8c0.2,0.3-0.3,0.6-0.5,0.3c-0.7-1-0.5-2.2-0.2-3.3
				C-187.3,418.4-186.7,418.5-186.8,418.9z"/>
			<path fill="#1B1F3E" d="M-186,418.9c0.1-0.8,0.5-1.5,1.1-2.1c0.3-0.3,0.7,0.1,0.4,0.4c-0.5,0.5-0.8,1.1-0.9,1.8
				C-185.5,419.4-186,419.2-186,418.9z"/>
			<path fill="#1B1F3E" d="M-186.6,423c-0.1-0.3,0.4-0.5,0.5-0.2c0.4,1,1.1,1.9,2.2,2.3c0.3,0.1,0.1,0.6-0.2,0.5
				C-185.3,425.2-186.1,424.1-186.6,423z"/>
		</g>
		<path fill="#1B1F3E" d="M-184.5,415.2c0,0-0.1-0.2-0.1-0.4c0-0.1,0-0.2,0-0.3c0-0.1,0.1-0.1,0.1-0.2c0.1-0.1,0.3-0.1,0.5,0
			c0.2,0.1,0.4,0.2,0.4,0.2s0.1,0.2,0.1,0.4c0,0.2,0,0.4-0.2,0.5c-0.1,0-0.1,0.1-0.2,0.1c-0.1,0-0.2,0-0.3,0
			C-184.3,415.3-184.5,415.2-184.5,415.2z"/>
	</g>
	<g>
		<path fill="#3D446B" d="M-204.3,425.3c2-1.1,8.8-2.3,12,1.9c3.2,4.2,2.5,14-4.7,15c-7.2,1-11.5-3.1-11.7-6.7
			C-208.8,431.9-208.2,427.4-204.3,425.3z"/>
		<path fill="#1B1F3E" d="M-200.3,424.3c0,0-2.7-2.7-3.3-2.5c-0.6,0.2,2,3,1.7,3.6c-0.4,0.6-3.1,2.7-3.1,3.3c0,0.6,4.3-1.8,4.8-1.2
			c0.5,0.6,1.7,3,1.7,3s0.5-3.4,1.5-3.6c1-0.2,2.8,0.6,3.2,0c0.5-0.6-4.2-1.9-4.2-1.9s2.2-3.6,1-4
			C-198.3,420.5-200.3,424.3-200.3,424.3z"/>
		<g>
			<path fill="#1B1F3E" d="M-206.5,435.4c0.3,1.1,0.6,2.2,1.7,2.7c0.4,0.2,0,0.7-0.3,0.6c-1.2-0.6-1.6-1.9-2-3.1
				C-207.2,435.1-206.6,435-206.5,435.4z"/>
			<path fill="#1B1F3E" d="M-205.7,434.9c-0.3-0.8-0.3-1.8,0-2.6c0.1-0.4,0.7-0.2,0.6,0.2c-0.2,0.8-0.2,1.5,0,2.3
				C-204.9,435.1-205.6,435.2-205.7,434.9z"/>
			<path fill="#1B1F3E" d="M-204.1,439.3c-0.3-0.2,0.1-0.7,0.4-0.5c1,0.8,2.1,1.3,3.4,1.2c0.4,0,0.5,0.6,0.1,0.6
				C-201.7,440.8-203,440.2-204.1,439.3z"/>
		</g>
		<path fill="#1B1F3E" d="M-199,440c0,0-0.2-0.2-0.2-0.3c0-0.1,0-0.2,0-0.3c0-0.1,0.1-0.1,0.1-0.2c0.1-0.1,0.3-0.1,0.5,0
			c0.2,0.1,0.3,0.3,0.3,0.3s0,0.2,0.1,0.4c0,0.2,0,0.3,0,0.3c0,0-0.1,0-0.1,0c-0.1,0-0.1,0-0.2-0.1C-198.9,440-199,440-199,440z"/>
	</g>
	<g>
		<path fill="#3D446B" d="M-222.8,437.4c1.2-1.2,5.7-3.5,8.8-1.3c3.1,2.2,4.8,9.3-0.1,11.5c-4.9,2.2-8.7,0.3-9.7-2.3
			C-224.6,443-225.1,439.7-222.8,437.4z"/>
		<path fill="#1B1F3E" d="M-219.9,436.9c0,0-2-1.1-2.3-0.8c-0.3,0.2,1.6,1.3,1.5,1.8c-0.1,0.4-1.3,2.1-1.2,2.4
			c0.1,0.3,2.1-1.7,2.5-1.5c0.4,0.2,1.5,1.4,1.5,1.4s-0.3-2,0.2-2.3c0.5-0.3,1.7-0.2,1.8-0.6c0.2-0.4-2.7-0.4-2.7-0.4
			s0.6-2.4-0.1-2.4C-219.4,434.5-219.9,436.9-219.9,436.9z"/>
		<g>
			<path fill="#1B1F3E" d="M-222.3,445c0.4,0.7,0.9,1.4,1.8,1.6c0.3,0,0.2,0.5-0.1,0.5c-1-0.2-1.6-1-2-1.8
				C-222.8,445-222.4,444.7-222.3,445z"/>
			<path fill="#1B1F3E" d="M-221.8,444.5c-0.4-0.5-0.6-1.2-0.6-1.8c0-0.3,0.5-0.3,0.5,0c0,0.6,0.2,1.1,0.5,1.6
				C-221.2,444.4-221.6,444.7-221.8,444.5z"/>
			<path fill="#1B1F3E" d="M-219.7,447.2c-0.3-0.1-0.1-0.5,0.2-0.4c0.9,0.3,1.8,0.5,2.6,0.1c0.3-0.1,0.4,0.3,0.2,0.4
				C-217.7,447.8-218.8,447.6-219.7,447.2z"/>
		</g>
		<path fill="#1B1F3E" d="M-223.2,440.8C-223.3,440.8-223.2,440.8-223.2,440.8l0,0.1l0,0.1c0,0.1,0,0.1,0,0.2c0,0.1,0,0.1,0,0.2
			c0,0,0,0,0,0.1c0,0,0,0,0,0c0,0,0,0,0,0l0,0c0,0,0,0,0,0c-0.1,0-0.1,0.1-0.2,0.1c-0.2,0-0.3-0.1-0.4-0.1l-0.2-0.2l0.2-0.6
			c0-0.1,0.1-0.2,0.1-0.3c0,0,0.1-0.1,0.1-0.1c0,0,0.1-0.1,0.1-0.1c0.2-0.1,0.4-0.1,0.8,0.1c0.1,0.4,0.1,0.7,0,0.9
			c0,0.1-0.1,0.1-0.1,0.1c0,0-0.1,0.1-0.1,0.1c-0.1,0.1-0.2,0.1-0.3,0.1l0-0.8c-0.1-0.1-0.2-0.2-0.4-0.1c-0.1,0-0.1,0-0.2,0.1
			c-0.1,0,0,0,0,0l0,0c0,0,0,0,0,0c0,0,0,0,0,0c0,0,0,0,0.1,0c0,0,0.1,0,0.2,0c0.1,0,0.1,0,0.2,0l0.1,0L-223.2,440.8
			C-223.3,440.8-223.2,440.8-223.2,440.8z"/>
	</g>
	<g>
		<path fill="#3D446B" d="M-205.1,397.2c2.8-0.9,11.5-0.9,14.5,5c3,5.9,0,18-9.2,17.6c-9.1-0.4-13.5-6.4-13-11
			C-212.2,404.3-210.4,398.9-205.1,397.2z"/>
		<path fill="#1B1F3E" d="M-200.1,398.7c0,0-2.2-3.1-2.8-3.1c-0.7,0.1,1.5,3.3,1,3.9c-0.5,0.6-3.6,2.2-3.7,2.7
			c-0.1,0.6,4.6-1,4.9-0.3c0.4,0.6,1.1,3.3,1.1,3.3s1.1-3.3,2.1-3.3c1-0.1,2.6,1.1,3.2,0.6c0.6-0.5-3.8-2.7-3.8-2.7s2.8-3.2,1.7-3.8
			C-197.5,395.3-200.1,398.7-200.1,398.7z"/>
		<g>
			<path fill="#1B1F3E" d="M-210.1,409.1c0.1,1.4,0.2,2.9,1.5,3.8c0.4,0.3-0.1,0.9-0.5,0.6c-1.4-1-1.6-2.7-1.7-4.3
				C-211,408.7-210.1,408.6-210.1,409.1z"/>
			<path fill="#1B1F3E" d="M-209,408.7c-0.2-1.1,0-2.3,0.5-3.3c0.2-0.5,1-0.1,0.7,0.3c-0.5,0.9-0.6,1.9-0.5,2.8
				C-208.1,409.2-208.9,409.2-209,408.7z"/>
			<path fill="#1B1F3E" d="M-208,414.6c-0.3-0.4,0.3-0.9,0.6-0.5c1,1.2,2.3,2.1,3.9,2.2c0.5,0,0.4,0.8-0.1,0.8
				C-205.4,417-206.8,415.9-208,414.6z"/>
		</g>
		<path fill="#1B1F3E" d="M-208.1,410.3c0,0-0.1-0.2-0.2-0.3c0-0.1-0.1-0.2-0.1-0.2c0-0.1,0-0.1,0-0.1c0.1-0.1,0.2,0,0.4,0
			c0.2,0.1,0.3,0.2,0.3,0.2s0.1,0.2,0.2,0.3c0.1,0.2,0.1,0.3,0,0.4c0,0-0.1,0-0.1,0c-0.1,0-0.1,0-0.2-0.1
			C-207.9,410.4-208.1,410.3-208.1,410.3z"/>
	</g>
	<g>
		<path fill="#3D446B" d="M-232,414c2-1.9,9.6-5.5,14.7-1.7c5.1,3.9,7.5,15.7-0.7,19.1c-8.1,3.4-14.4,0-15.9-4.2
			C-235.2,423.1-235.9,417.6-232,414z"/>
		<path fill="#1B1F3E" d="M-228,413.4c0,0-3.7,0.3-3.9,0.9c-0.3,0.6,3.5,0.3,3.8,1c0.3,0.7,0.1,4,0.6,4.4c0.4,0.3,1.3-4.3,2-4.3
			c0.7,0,3.3,0.6,3.3,0.6s-2.2-2.5-1.8-3.3c0.4-0.9,2.1-1.7,2-2.4c-0.1-0.7-4.1,2-4.1,2s-1.3-3.8-2.4-3.2
			C-229.7,409.6-228,413.4-228,413.4z"/>
		<g>
			<path fill="#1B1F3E" d="M-231.4,426.5c0.7,1.2,1.4,2.4,2.8,2.7c0.5,0.1,0.3,0.8-0.2,0.8c-1.6-0.3-2.5-1.7-3.3-3
				C-232.3,426.4-231.6,426-231.4,426.5z"/>
			<path fill="#1B1F3E" d="M-230.6,425.6c-0.6-0.9-0.9-2-0.9-3.1c0-0.5,0.8-0.5,0.8,0c0,1,0.2,1.9,0.8,2.7
				C-229.6,425.6-230.3,426-230.6,425.6z"/>
			<path fill="#1B1F3E" d="M-227.3,430.3c-0.4-0.2-0.1-0.9,0.3-0.7c1.4,0.6,2.9,0.9,4.4,0.3c0.4-0.2,0.7,0.5,0.3,0.7
				C-224,431.3-225.7,431-227.3,430.3z"/>
		</g>
		<path fill="#1B1F3E" d="M-227,427.9c0,0-0.1-0.2-0.1-0.4c0-0.1,0-0.2,0-0.3c0-0.1,0.1-0.1,0.1-0.2c0.1-0.1,0.3-0.1,0.4,0
			c0.2,0.1,0.3,0.2,0.3,0.2s0.1,0.2,0.1,0.4c0,0.2,0,0.4-0.1,0.5c-0.1,0-0.1,0.1-0.2,0.1c-0.1,0-0.2,0-0.2-0.1
			C-226.8,428-227,427.9-227,427.9z"/>
		<path fill="#1B1F3E" d="M-227.4,423.2c0,0-0.1-0.2-0.1-0.4c0-0.1,0-0.2,0-0.2c0-0.1,0-0.1,0.1-0.1c0.1-0.1,0.2,0,0.4,0.1
			c0.1,0.1,0.3,0.2,0.3,0.2s0.1,0.2,0.1,0.4c0,0.2,0,0.3,0,0.4c0,0-0.1,0-0.2,0c-0.1,0-0.1,0-0.2-0.1
			C-227.3,423.3-227.4,423.2-227.4,423.2z"/>
	</g>
</g>
</svg>
