<?xml version="1.0" encoding="utf-8"?>
<!-- Generator: Adobe Illustrator 19.0.0, SVG Export Plug-In . SVG Version: 6.00 Build 0)  -->
<svg version="1.1" baseProfile="tiny" id="Warstwa_1"
	 xmlns="http://www.w3.org/2000/svg" xmlns:xlink="http://www.w3.org/1999/xlink" x="0px" y="0px" width="171px" height="154px"
	 viewBox="0 0 171 154" xml:space="preserve">
<g id="XMLID_86_">
	<path id="XMLID_153_" fill="#73993E" d="M78.5,33c-0.3,0.9-1.1,1.4-1.7,2.1c-1.9,2.2-2,5.9-0.1,8.2c1.1,1.3,2.7,2.2,3.6,3.7
		c2,3.4-0.5,8.2,1.6,11.5c1.5,2.2,4.6,2.9,6.1,5.1c4.7-0.8,7.9-6.3,6.3-10.8c-0.9-2.5-2.9-4.4-3.5-7c-0.8-3,0.5-6.2,1.2-9.2
		c0.8-3,0.9-6.7-1.5-8.8c-1.8-1.5-4.5-1.6-6.4-3c-2.2-1.7-2.8-4.7-3.8-7.2c-1.1-2.5-3.7-5.1-6.3-4.1c-1.9,2.5-1.1,6.1,0.4,8.9
		c1.5,2.8,3.5,5.3,4.1,8.4C78.7,31.5,78.8,32.3,78.5,33z"/>
	<path id="XMLID_152_" fill="#8EC13F" d="M114.5,27.5c-0.5,3,1.4,5.7,3.1,8.3c1.6,2.5,3,5.8,1.5,8.4c-0.6,1-1.5,1.7-2.4,2.3
		c-2,1.5-4.2,2.7-6.5,3.8c-0.1,4.2-2.3,8.3-5.8,10.7c-1.4,1-3,1.7-4.7,1.7c-4.7,0.1-8-4.6-10.1-8.8c-1.4-2.9-2.6-6.7-0.5-9.2
		c0.5-0.6,1.1-1,1.4-1.8c0.4-1-0.1-2.1-0.6-3c-1.9-3.8-4-7.8-4.1-12.1s2.7-9,6.9-9.6c1.9-0.2,3.9,0.3,5.6-0.5
		c1.8-0.8,2.6-2.8,3.9-4.2c2.6-3,7.5-3.8,10.9-1.7s5,6.7,3.6,10.5C116.1,24,114.8,25.6,114.5,27.5z"/>
	<path id="XMLID_151_" fill="#84AA3F" d="M63.8,29.3c1.5,2.2,4.4,2.8,7,3.4c2.6,0.6,5.5,1.8,6.1,4.4c0.2,1,0.1,1.9-0.1,2.9
		c-0.4,2.2-1,4.3-1.8,6.4c2.5,2.7,3.6,6.7,2.9,10.3c-0.3,1.5-0.9,2.9-2,4c-2.9,2.9-7.8,2-11.8,0.6c-2.7-1-5.8-2.6-6-5.5
		c0-0.7,0.1-1.4-0.2-2c-0.4-0.8-1.3-1.2-2.2-1.5c-3.6-1.2-7.3-2.5-10-5.2c-2.7-2.7-3.8-7.3-1.5-10.3c1-1.3,2.6-2.2,3.2-3.7
		c0.6-1.6,0-3.4-0.1-5.1c-0.2-3.5,2.4-7,5.9-7.8c3.4-0.8,7.3,1.2,8.7,4.4C62.7,26.2,62.9,27.9,63.8,29.3z"/>
	<path id="XMLID_150_" fill="#8EC13F" d="M67.5,47.3c0-2.2,0.9-4.4,0.3-6.6c-0.6-2.4-2.9-4-4.5-5.9c-2.2-2.6-3.3-6.6-1.6-9.6
		c0.6-1,1.4-1.9,2-2.9c1-1.7,1-3.9,0.4-5.7c-0.9-2.6,2.2-4.8,4.3-3.1c0,0,0,0,0.1,0c1.9,1.5,2.7,3.9,3.5,6.1
		c0.8,2.3,1.6,4.6,3.4,6.2c1,0.9,2.4,1.5,3.2,2.6c2.8,3.6-1.3,9.2,0.6,13.4c0.7,1.7,2.3,2.8,3.3,4.4c1.9,3.2,0.7,7.5-0.2,11
		c-0.2,1-0.8,1.9-1.6,2.5c-1.5,1.1-2.8,0.2-3.9-0.5C72.4,56.3,67.5,52.5,67.5,47.3z"/>
	<g id="XMLID_142_">
		<path id="XMLID_149_" fill="#9F1C43" d="M100.5,64.7c-1-0.4-2.1-0.8-3.1-1.1c0.9-1.5,1.7-3,2.5-4.4c1.6-2.9,3.1-5.9,4.3-9
			c0.1-0.3,0.2-0.5,0.3-0.8c1.7-1.1,3.2-2.6,4.7-3.8c1.8-1.6,3.7-3.1,5.4-4.8c0.2-0.2-0.1-0.5-0.3-0.3c-1.8,1.2-3.5,2.6-5.2,3.9
			c-1.2,1-2.6,2-3.9,3c2.1-5.4,3.9-11.1,4.3-16.8c0-0.3-0.5-0.4-0.6-0.1c-1.1,4.1-2.1,8.1-3.3,12.1c-1.4-2.6-3-4.8-3.9-7.8
			c-1.1-3.5-1.1-7.2-0.5-10.8c0-0.2-0.3-0.3-0.3-0.1c-1,3.4-1,6.9-0.3,10.3c0.6,3.1,2.2,7.2,4.7,9.3c0,0,0,0,0,0
			c-0.5,1.7-1.1,3.3-1.8,5c-0.6,1.5-1.3,3-2,4.5C97.3,48,95.5,42,95.4,35.4c0-0.4-0.5-0.3-0.5,0c-0.8,6.7,1.9,13.7,6.2,18.8
			c0,0,0.1,0.1,0.1,0.1c-0.6,1.3-1.3,2.5-1.9,3.8c-1,1.8-2.2,3.5-3.3,5.2c-2.6-0.7-5.2-1.1-7.9-1.2c-0.6-3-1-6-1.4-9
			c-0.4-2.8-0.7-5.7-0.9-8.5c-0.2-2.8-0.2-5.8-0.7-8.6c0-0.2-0.3-0.1-0.3,0c-0.7,5.5,0.2,11.5,0.8,17c0.3,2.6,0.7,5.2,1.1,7.8
			c0.1,0.4,0.1,0.7,0.2,1.1c-2,0-3.9,0.1-5.9,0.3c-0.5-0.8-0.9-1.6-1.3-2.3c-1.2-2.2-2.3-4.5-3.2-6.9c1.3-5.2,1.2-11.1-1-16
			c-0.1-0.2-0.4-0.1-0.3,0.1c0.9,4.8,1.3,9.2,0.6,13.9c-0.2-0.5-0.4-1.1-0.6-1.6c-2.5-7.2-3-14.4-3.6-22c0-0.1-0.1-0.1-0.1,0
			c-0.6,4.3-0.3,8.9,0.5,13.4c-3.1-3.6-5-7.8-5.6-12.5c0-0.2-0.3-0.2-0.3,0c0.2,5.1,2,9.7,5.4,13.5c0.2,0.2,0.5,0.2,0.7,0
			c0.5,2.4,1.1,4.8,1.8,7.1c1.1,3.5,2.5,6.9,4.2,10.2c0.5,1,1,2.1,1.6,3.2c-1.3,0.2-2.6,0.4-3.8,0.7c-0.2-0.3-0.5-0.5-0.7-0.8
			c-1.8-2-3.4-4.1-4.9-6.3c-2.2-3.3-4-6.7-5.8-10.2c-0.5-1.1-1.1-2.3-1.6-3.4c-1.3-2.9-2.6-5.8-4.1-8.6c-0.1-0.2-0.4-0.1-0.3,0.1
			c0.9,2.4,1.9,4.8,2.9,7.1c1.2,2.9,2.3,6.1,3.9,8.7c0.1,0.1,0.2,0.2,0.3,0.2c0.1,0.1,0.1,0.2,0.2,0.4c-2.3-1.3-4.5-2.8-6.5-4.6
			c-2.4-2.1-4-4.8-6.1-7.1c-0.1-0.1-0.2,0-0.2,0.1c2,5.8,8.2,10.4,13.4,13.1c0.1,0,0.2,0.1,0.3,0.1c1,1.8,2.1,3.5,3.2,5.1
			c1.4,2.1,3,4.3,4.7,6.4c-4.2,1.2-8.3,2.9-12,5.3C55.8,73.1,50,79.6,48.8,87.5c-0.5,3.2-0.9,6.3,1.7,8.1c1.4,1,3.3,1,5,0.9
			c22.4-0.3,45.1-1.3,67.6-1.6C122.1,81.7,112.8,69.7,100.5,64.7z"/>
		<path id="XMLID_148_" fill="#FFFFFF" d="M105.4,73.4c-3.3-0.7-7.2-0.5-10.6-0.3c-0.3,0-0.3,0.4,0,0.5c3.3,0.4,7.2,0.9,10.6,0.4
			C105.8,74,105.7,73.5,105.4,73.4z"/>
		<path id="XMLID_147_" fill="#FFFFFF" d="M111.5,81.5c-4.5-0.7-9.4-0.4-13.9-0.6c-5.3-0.2-10.6-0.3-15.8-0.5c-0.1,0-0.1,0.2,0,0.2
			c5,0.3,9.9,0.5,14.9,0.8c4.9,0.3,10,1,14.9,0.6C111.8,82.1,111.9,81.6,111.5,81.5z"/>
		<path id="XMLID_146_" fill="#FFFFFF" d="M72.6,75.7c-4.6,0.3-9.6,0-14.1,1.2c-0.4,0.1-0.3,0.7,0.1,0.7c4.6,0.3,9.4-0.9,14-1.5
			C72.8,76.1,72.8,75.7,72.6,75.7z"/>
		<path id="XMLID_145_" fill="#FFFFFF" d="M82.6,66.6c-4.2,0.2-8.7-0.2-12.8,0.7c-0.5,0.1-0.3,0.8,0.1,0.8c4.2,0.3,8.5-0.7,12.7-1
			C82.9,67,82.9,66.6,82.6,66.6z"/>
		<path id="XMLID_144_" fill="#FFFFFF" d="M86.1,75.6c-1.9,0.1-3.8,0.2-5.7,0.4c-0.3,0-0.2,0.5,0.1,0.5c1.9,0,3.8-0.3,5.7-0.5
			C86.4,76,86.4,75.6,86.1,75.6z"/>
		<path id="XMLID_143_" fill="#FFFFFF" d="M97,66.9c-0.9,0-1.7,0-2.6,0c-0.3,0-0.3,0.4,0,0.4c0.9,0,1.7,0,2.6,0
			C97.3,67.3,97.3,66.9,97,66.9z"/>
	</g>
	<g id="XMLID_87_">
		<path id="XMLID_141_" fill="#572157" d="M30.5,142.8c-3-1.2-3.3-5.3-3.1-8.6c0.6-10.7,1.1-21.4,1.7-32.1c0.1-2.1,0.2-4.2,1-6.2
			c2.2-6,9.1-8.6,15.3-9.6c19.6-3.2,39.4,1.8,59,4.8c5.5,0.9,11.2,1.5,16.7,0.6c7.6-1.3,14.4-5.5,21.9-6.9
			c1.8,14.3,1.9,28.8,0.3,43.1c-0.3,2.8-0.7,5.7-2.3,8.1c-3.4,5.2-10.8,5.4-16.8,4.6c-14.6-2.1-28.7-7.4-43.3-9.7s-30.8-1-42.2,8.5
			C36.3,141.5,33.4,144,30.5,142.8z"/>
		<g id="XMLID_104_">
			<g id="XMLID_121_">
				<path id="XMLID_131_" fill="#FFFFFF" d="M59.8,96.6c1.1-1.4,2.3-2.1,3.6-2.1c1.2,0,2.2,0.4,2.9,1.3c0.7,0.8,1.1,1.9,1.1,3.3
					c0,1.4,0,2.7,0,4.1c0,0.6,0.1,1.1,0.3,1.3c0.2,0.2,0.7,0.4,1.4,0.6c0.2,0,0.3,0.1,0.3,0.3c0,0.2-0.1,0.2-0.3,0.2
					c-0.1,0-0.3,0-0.6-0.1c-0.6-0.1-1.2-0.1-1.6-0.1c-0.8,0-1.3,0-1.7,0c-0.2,0-0.3,0-0.4,0c-0.2,0-0.4-0.1-0.4-0.2
					c0-0.1,0.1-0.2,0.3-0.3c0.4-0.2,0.7-0.3,0.8-0.4c0.1-0.1,0.2-0.4,0.2-0.8c0-0.1,0-0.3,0-0.4c0-1.4,0-2.8,0-4.2
					c0-1.1-0.3-1.9-0.8-2.6c-0.6-0.6-1.3-1-2.2-0.9c-0.7,0-1.4,0.3-1.9,0.7c-0.6,0.5-0.9,1-0.9,1.5c0,1.7,0,3.3,0,5
					c0,0.9,0.1,1.4,0.3,1.7c0.2,0.2,0.7,0.4,1.4,0.5c0.3,0,0.4,0.1,0.4,0.3c0,0.1-0.1,0.2-0.3,0.2c-0.1,0-0.3,0-0.7,0
					c-0.3,0-1,0-1.9,0c-0.3,0-0.8,0.1-1.5,0.2c-0.3,0-0.5,0.1-0.6,0.1c-0.2,0-0.3,0-0.3-0.2c0-0.1,0.1-0.3,0.3-0.3
					c0.5-0.2,0.8-0.4,0.9-0.6c0.1-0.2,0.2-0.7,0.2-1.4c0-4.4,0-8.9,0-13.3c0-1-0.3-1.5-0.9-1.5c-0.2,0-0.4,0.1-0.7,0.1
					c-0.1,0-0.1,0-0.2,0c-0.1,0-0.1-0.1-0.1-0.2c0-0.1,0.1-0.2,0.3-0.3c0.5-0.2,1.1-0.5,1.8-0.8c0.3-0.2,0.7-0.4,1-0.5
					c0.1-0.1,0.2-0.1,0.3-0.1c0.1,0,0.2,0.1,0.2,0.3c0,0.1,0,0.2,0,0.3c0,0.1,0,0.4,0,0.7C59.8,90.7,59.8,93.7,59.8,96.6z"/>
				<path id="XMLID_128_" fill="#FFFFFF" d="M76.4,95.2c1.5,0.2,2.9,0.9,4,2.1c1.1,1.2,1.7,2.6,1.7,4.1c0,1.6-0.5,2.9-1.6,3.8
					c-1.1,0.9-2.5,1.3-4.1,1.1c-1.6-0.2-3-0.8-4-1.9c-1-1.1-1.6-2.5-1.6-4.1c0-1.5,0.6-2.8,1.7-3.8C73.5,95.5,74.8,95,76.4,95.2z
					 M76.1,95.7c-1.1-0.1-1.9,0.2-2.6,0.9c-0.7,0.7-1,1.7-1,3c0,1.6,0.4,3,1.2,4.2c0.8,1.2,1.8,1.8,3,1.9c1.1,0.1,1.9-0.2,2.5-0.9
					c0.6-0.7,0.9-1.7,0.9-3.1c0-1.7-0.4-3.1-1.1-4.2C78.3,96.4,77.3,95.8,76.1,95.7z"/>
				<path id="XMLID_126_" fill="#FFFFFF" d="M87.4,98.3c1-1,2.1-1.5,3.4-1.3c0.8,0.1,1.4,0.3,1.8,0.7c0.5,0.3,0.9,0.9,1.3,1.6
					c1-1.2,2.1-1.7,3.5-1.6c1.2,0.1,2.1,0.6,2.7,1.3c0.6,0.8,1,1.8,1,3.2c0,1.4,0,2.7,0,4.1c0,0.7,0.1,1.2,0.4,1.5
					c0.3,0.3,0.7,0.6,1.3,0.6c0.2,0,0.3,0.1,0.3,0.3c0,0.1-0.1,0.2-0.3,0.2c-0.1,0-0.2,0-0.4-0.1c-0.3-0.1-0.7-0.1-1.3-0.1
					c-1.1-0.1-1.8-0.1-2.1-0.1c-0.2,0-0.3,0-0.4,0c-0.2,0-0.3-0.1-0.3-0.3c0-0.1,0.1-0.2,0.2-0.2c0.4-0.1,0.6-0.2,0.7-0.4
					c0.1-0.1,0.2-0.3,0.2-0.7c0-0.1,0-0.3,0-0.4c0-1.4,0-2.8,0-4.2c0-1.2-0.2-2.1-0.7-2.8c-0.5-0.7-1.2-1.1-2-1.2
					c-0.6-0.1-1.1,0.1-1.7,0.4c-0.5,0.3-0.8,0.7-0.8,1c0,0.1,0,0.2,0,0.3c0.1,0.3,0.1,0.6,0.1,0.9c0,1.5,0,3.1,0,4.6
					c0,0.6,0.1,1.1,0.3,1.4c0.2,0.3,0.6,0.5,1.2,0.6c0.3,0.1,0.4,0.2,0.4,0.3c0,0.2-0.1,0.2-0.4,0.2c-0.1,0-0.2,0-0.4-0.1
					c-0.5-0.1-0.9-0.2-1.2-0.2c-1.2-0.1-1.9-0.2-2.2-0.2c-0.2,0-0.3,0-0.4,0c-0.2,0-0.3-0.1-0.3-0.3c0-0.1,0.1-0.2,0.2-0.2
					c0.5-0.1,0.7-0.2,0.8-0.4c0.1-0.1,0.1-0.6,0.1-1.2c0-1.6,0-3.2,0-4.7c0-0.9-0.2-1.6-0.7-2.2c-0.5-0.6-1.1-0.9-1.9-1
					c-0.7-0.1-1.4,0-1.8,0.3c-0.5,0.3-0.7,0.8-0.7,1.4c0,1.8,0,3.7,0,5.5c0,0.6,0.1,1,0.4,1.3c0.2,0.3,0.7,0.5,1.2,0.6
					c0.3,0.1,0.4,0.2,0.4,0.3c0,0.2-0.1,0.2-0.3,0.2c-0.1,0-0.3-0.1-0.6-0.1c-0.2,0-0.5-0.1-1.1-0.2c-0.3,0-0.6-0.1-0.9-0.1
					c-0.3,0-0.6-0.1-0.9-0.1c-0.1,0-0.3,0-0.4,0c-0.2,0-0.4,0-0.5,0c-0.2,0-0.3-0.1-0.3-0.3c0-0.1,0.1-0.2,0.3-0.3
					c0.4-0.1,0.6-0.2,0.8-0.4c0.1-0.2,0.2-0.5,0.2-1.1c0-1.9,0-3.8,0-5.7c0-0.6-0.1-1-0.2-1.3c-0.1-0.2-0.4-0.4-0.7-0.4
					c-0.2,0-0.4,0-0.6-0.1c-0.1,0-0.2,0-0.2-0.1c-0.1,0-0.1-0.1-0.1-0.1c0-0.1,0.1-0.2,0.3-0.2c0.9-0.1,1.7-0.3,2.5-0.7
					c0.3-0.1,0.5-0.2,0.6-0.2c0.1,0,0.2,0.2,0.2,0.5C87.4,97.2,87.4,97.7,87.4,98.3z"/>
				<path id="XMLID_123_" fill="#FFFFFF" d="M106.3,102.6c0,0.1,0,0.2,0,0.3c0,1.5,0.4,2.7,1.2,3.7c0.8,1,1.8,1.5,3,1.5
					c0.9,0,1.9-0.5,3-1.4c0.1-0.1,0.1-0.1,0.2-0.1c0.1,0,0.2,0,0.2,0.2c0,0.3-0.3,0.6-0.9,1.1c-1.1,0.9-2.3,1.4-3.5,1.4
					c-1.4,0-2.6-0.5-3.5-1.6c-0.9-1.1-1.4-2.4-1.4-4c0-1.5,0.5-2.8,1.5-3.8c1-1.1,2.1-1.6,3.4-1.6c1.4,0,2.6,0.5,3.4,1.7
					c0.2,0.3,0.4,0.7,0.6,1.1c0.2,0.5,0.3,0.8,0.3,1c0,0.3-0.3,0.4-0.8,0.5c-0.3,0-0.6,0-0.9,0c-0.3,0-0.6,0-0.9,0
					C109.5,102.7,107.9,102.7,106.3,102.6z M106.3,101.9c1.4,0,2.9,0,4.3,0c0.7,0,1-0.2,1-0.4c0-0.7-0.3-1.3-0.9-1.8
					c-0.6-0.6-1.2-0.8-1.9-0.8c-0.7,0-1.3,0.3-1.7,0.8C106.7,100.2,106.4,101,106.3,101.9z"/>
			</g>
			<g id="XMLID_16_">
				<path id="XMLID_118_" fill="#FFFFFF" d="M51.7,113.1c0,2.5,0,4.9,0,7.4c0,1.2,0.1,2,0.2,2.4c0.2,0.4,0.6,0.6,1.4,0.6
					c0.1,0,0.3,0,0.4,0c0.2,0,0.3,0.1,0.3,0.3c0,0.2-0.1,0.3-0.4,0.3c-0.1,0-0.2,0-0.3,0c-0.2,0-0.4,0-0.6,0.1
					c-0.5,0.1-1,0.1-1.5,0.2c-0.1,0-0.3,0.1-0.4,0.1c-0.5,0.1-1.1,0.3-1.9,0.5c-0.3,0.1-0.5,0.2-0.6,0.2c-0.2,0-0.3,0-0.3-0.2
					c0-0.2,0.1-0.3,0.2-0.3c0.5-0.2,0.8-0.5,1-0.9c0.2-0.4,0.2-1.1,0.2-2c0-2.5,0-5,0-7.5c0-0.7-0.1-1.3-0.4-1.5
					c-0.3-0.3-0.8-0.4-1.4-0.3c-0.2,0-0.4,0-0.4-0.2c0-0.2,0.1-0.3,0.4-0.4c0.1,0,0.2,0,0.5-0.1c0.7-0.1,1.5-0.3,2.5-0.5
					c0.4-0.1,0.8-0.2,1.1-0.2c0.4-0.1,0.7-0.2,1.1-0.2c0.4-0.1,0.7-0.1,1-0.2c1.8-0.3,3.2,0,4,0.7c0.8,0.6,1.1,1.5,1.1,2.5
					c0,1.1-0.4,2-1.2,2.8c-0.8,0.8-1.8,1.3-2.9,1.4c-0.6,0.1-1.2,0.1-1.6,0c-0.5-0.1-0.7-0.2-0.7-0.4c0-0.2,0.1-0.3,0.2-0.3
					c0,0,0.1,0,0.2,0c0.4,0,0.7,0.1,1,0c0.8-0.1,1.4-0.4,1.9-1c0.5-0.6,0.8-1.2,0.8-2c0-1-0.3-1.8-0.9-2.3c-0.6-0.6-1.3-0.8-2.3-0.7
					c-0.7,0.1-1.2,0.3-1.4,0.5C51.8,112.1,51.7,112.5,51.7,113.1z"/>
				<path id="XMLID_113_" fill="#FFFFFF" d="M65.3,111.1c1.5,3.4,3,6.9,4.4,10.4c0.2,0.5,0.5,0.9,0.8,1.2c0.3,0.3,0.7,0.5,1.2,0.6
					c0.1,0,0.2,0.1,0.2,0.3c0,0.2-0.1,0.3-0.2,0.2c-0.1,0-0.2,0-0.4-0.1c-0.5-0.1-1.3-0.3-2.4-0.3c-1.1-0.1-1.9,0-2.3,0.1
					c-0.1,0-0.2,0-0.3,0c-0.2,0-0.3-0.1-0.3-0.3c0-0.1,0.1-0.2,0.2-0.2c0.3-0.1,0.6-0.2,0.8-0.5c0.2-0.2,0.3-0.5,0.3-0.7
					c0-0.4-0.3-1.2-0.8-2.4c-0.2-0.4-0.4-0.6-0.6-0.7c-0.2-0.1-1-0.1-2.2-0.1c-0.4,0-0.9,0-1.3,0c-0.3,0.1-0.6,0.1-0.9,0.2
					c-0.2,0.1-0.5,0.6-0.8,1.3c-0.1,0.3-0.2,0.5-0.3,0.8c-0.1,0.2-0.1,0.4-0.1,0.7c0,0.8,0.6,1.3,1.7,1.4c0.2,0,0.4,0.1,0.4,0.3
					c0,0.2-0.1,0.3-0.4,0.3c-0.1,0-0.3,0-0.5,0c-0.4-0.1-0.8-0.1-1.2-0.1c-0.3,0-0.8,0.1-1.5,0.2c-0.5,0.1-0.8,0.1-0.9,0.1
					c-0.2,0-0.3-0.1-0.3-0.2c0-0.1,0.1-0.2,0.3-0.3c0.4-0.1,0.6-0.4,0.8-0.7c0.2-0.3,0.5-1,0.9-1.9c0.9-2.1,1.8-4.2,2.7-6.2
					c0.2-0.5,0.4-0.8,0.4-1c0.3-0.6,0.6-1.2,0.9-1.9c0.2-0.3,0.3-0.6,0.5-0.9c0,0,0,0,0,0c0.2-0.5,0.3-0.7,0.4-0.7
					c0.1,0,0.3,0.3,0.5,0.8C65.2,110.7,65.3,110.9,65.3,111.1z M65.7,117.2c-0.4-1-0.9-2-1.3-3c-0.3-0.7-0.5-1.1-0.7-1.1
					c-0.1,0-0.2,0.2-0.4,0.7c-0.1,0.1-0.1,0.3-0.2,0.4c-0.4,0.9-0.8,1.7-1.1,2.6c0,0.1-0.1,0.2-0.1,0.2c0,0.1-0.1,0.2-0.1,0.3
					c0,0.2,0.2,0.3,0.7,0.3c1,0,1.9,0,2.9,0c0.2,0,0.4-0.1,0.4-0.2c0,0,0-0.1,0-0.2C65.7,117.3,65.7,117.2,65.7,117.2z"/>
				<path id="XMLID_110_" fill="#FFFFFF" d="M77.4,113c1.7,2.1,3.4,4.3,5.2,6.4c0.1,0.1,0.2,0.3,0.3,0.4c0.4,0.6,0.7,0.8,0.9,0.9
					c0.1,0,0.2-0.2,0.2-0.6c0.1-1.4,0.1-2.8,0.1-4.1c0-1.5-0.2-2.6-0.5-3.2c-0.3-0.6-0.9-1-1.8-1.1c-0.2,0-0.3-0.1-0.3-0.3
					c0-0.2,0.1-0.2,0.3-0.2c0.2,0,0.6,0.1,1.1,0.2c0.3,0.1,0.6,0.1,0.8,0.2c0.5,0.1,1.2,0.1,2.1,0.1c0.1,0,0.2,0,0.3,0
					c0.2,0,0.3,0.1,0.3,0.3c0,0.2-0.1,0.3-0.3,0.3c-0.8,0-1.3,0.7-1.3,2.1c0,0.2,0,0.3,0,0.5c0,2-0.1,4.1-0.1,6.1c0,0.3,0,0.6,0,0.8
					c0,0.4,0,0.7,0,1.1c0,0.2,0,0.5,0,0.7c0,0.4,0,0.8,0,1.2c0,0.2-0.1,0.3-0.2,0.2c-0.1,0-0.2-0.1-0.4-0.3c-3-3.7-5.9-7.3-8.9-10.9
					c-0.2-0.2-0.3-0.3-0.3-0.3c-0.2,0-0.2,0.1-0.2,0.4c0,0.1,0,0.2,0,0.3c0,1.3,0,2.5,0,3.8c0,2,0.1,3.4,0.3,4.1
					c0.2,0.7,0.8,1.2,1.9,1.4c0.2,0,0.3,0.1,0.3,0.3c0,0.2-0.1,0.3-0.3,0.3c-0.1,0-0.2,0-0.4-0.1c-0.5-0.1-1.2-0.3-1.8-0.3
					c-0.7-0.1-1.2-0.1-1.8,0c-0.2,0-0.4,0-0.5,0c-0.2,0-0.3-0.1-0.3-0.3c0-0.1,0.1-0.2,0.3-0.3c0.5-0.1,0.8-0.3,1-0.8
					c0.2-0.4,0.3-1,0.3-1.8c0-0.8,0-1.5,0.1-2.3c0-1.4,0-2.8,0-4.2c0-2-0.7-3.1-2.2-3.3c-0.2,0-0.3-0.1-0.3-0.3
					c0-0.2,0.1-0.3,0.3-0.3c0.2,0,0.5,0.1,0.7,0.1c0.1,0,0.3,0,0.4,0c0.5,0,1.1,0.1,1.6,0.1c0.2,0,0.4,0,0.5,0
					c0.2,0,0.4,0.1,0.5,0.2c0.1,0.1,0.4,0.4,0.7,0.9c0.2,0.3,0.4,0.6,0.7,0.9C77.2,112.8,77.4,113,77.4,113z"/>
				<path id="XMLID_108_" fill="#FFFFFF" d="M94.4,115.2c0,2.5,0,4.9,0,7.4c0,1.1,0.2,1.9,0.5,2.4c0.3,0.5,0.9,0.8,1.7,0.9
					c0.2,0,0.4,0.2,0.4,0.4c0,0.2-0.1,0.2-0.3,0.2c0,0-0.1,0-0.2,0c-0.2,0-0.5-0.1-0.7-0.1c-0.4-0.1-0.8-0.1-1.2-0.2
					c-0.1,0-0.2,0-0.4-0.1c-0.4,0-0.7-0.1-1-0.1c-0.7,0-1.4-0.1-2.2-0.1c-0.2,0-0.4,0-0.5,0c-0.2,0-0.3-0.1-0.3-0.3
					c0-0.1,0-0.2,0.1-0.3c0.1,0,0.2,0,0.4,0c0.5,0,0.9-0.1,1.2-0.4c0.3-0.3,0.4-0.7,0.4-1.3c0-0.2,0-0.3,0-0.5c0-2.9,0-5.8,0-8.7
					c0-0.5-0.3-0.8-0.8-0.9c-1.3-0.2-2.2-0.2-2.7,0c-0.3,0.1-0.6,0.2-0.7,0.4c-0.1,0.2-0.3,0.6-0.5,1.3c0,0.1-0.1,0.2-0.1,0.3
					c-0.1,0.3-0.2,0.4-0.3,0.4c-0.2,0-0.3-0.1-0.3-0.3c0-0.2,0-0.4,0.1-0.7c0-0.3,0.1-0.6,0.1-0.8c0-0.3,0.1-0.6,0.1-0.9
					c0-0.2,0-0.4,0.1-0.6c0-0.3,0.2-0.4,0.4-0.3c0.1,0,0.2,0,0.3,0.1c0.3,0.1,0.6,0.1,1.1,0.2c0.7,0.1,1.3,0.2,2,0.3
					c0.8,0.1,1.6,0.2,2.4,0.3c1.5,0.2,3.2,0.3,4.9,0.4c0.3,0,0.6,0,0.7,0c0.4,0,0.5,0.2,0.6,0.5c0,0.2,0,0.5,0,0.7
					c0,0.1,0,0.4,0.1,0.8c0,0.3,0.1,0.6,0.1,0.8c0,0.2-0.1,0.3-0.3,0.3c-0.2,0-0.3-0.1-0.3-0.4c-0.1-0.6-0.4-1.1-0.8-1.4
					c-0.4-0.3-0.9-0.5-1.7-0.6c-1-0.1-1.6-0.1-1.9,0C94.6,114.3,94.4,114.6,94.4,115.2z"/>
				<path id="XMLID_105_" fill="#FFFFFF" d="M104.3,123.3c0,1.2,0.1,2.1,0.3,2.5c0.2,0.4,0.7,0.7,1.3,0.8c0.3,0,0.4,0.1,0.4,0.3
					c0,0.2-0.1,0.3-0.3,0.3c-0.1,0-0.2,0-0.4,0c-0.6-0.1-1.1-0.1-1.6-0.1c-0.4,0-0.8,0-1.2,0c-0.3,0-0.5,0-0.8,0c-0.2,0-0.4,0-0.7,0
					c-0.2,0-0.3,0-0.4,0c-0.2,0-0.4-0.1-0.4-0.3c0-0.1,0.1-0.2,0.2-0.3c0.4-0.1,0.7-0.3,0.9-0.5c0.2-0.2,0.3-0.6,0.3-1
					c0-0.3,0-0.6,0-0.9c0-0.1,0-0.3,0-0.4c0-2.4,0-4.7,0-7.1c0-0.8-0.1-1.3-0.3-1.6c-0.3-0.5-0.8-0.8-1.6-0.9
					c-0.3-0.1-0.4-0.2-0.4-0.4c0-0.2,0.1-0.3,0.3-0.3c0.1,0,0.2,0,0.4,0.1c0.5,0.1,1.1,0.2,1.7,0.2c0.7,0,1.5,0.1,2.4,0
					c1.1,0,1.9-0.1,2.3-0.1c1.2,0,2.3,0.4,3.1,1c0.8,0.7,1.2,1.5,1.2,2.5c0,0.6-0.2,1.2-0.5,1.8c-0.4,0.5-0.9,0.9-1.5,1.2
					c-0.1,0.1-0.2,0.1-0.2,0.2c0,0.1,0,0.1,0.1,0.2c0.1,0.1,0.1,0.2,0.3,0.5c0.3,0.5,0.6,1,0.9,1.5c0.3,0.6,0.7,1.2,1,1.8
					c0.3,0.6,0.7,1,0.9,1.2c0.3,0.2,0.6,0.3,1,0.3c0.1,0,0.3,0,0.4-0.1c0.1,0,0.1,0,0.2,0c0.1,0,0.2,0.1,0.2,0.2
					c0,0.2-0.3,0.4-0.8,0.7c-0.5,0.3-1,0.4-1.4,0.4c-0.7,0-1.3-0.3-1.9-0.9c-0.6-0.7-1.3-1.9-2.2-3.7c-0.4-0.7-0.6-1.2-0.9-1.4
					c-0.2-0.2-0.6-0.3-1.1-0.3c-0.2,0-0.4,0-0.6,0c-0.1,0-0.3,0-0.4,0.1c-0.1,0-0.1,0.2-0.1,0.5
					C104.3,121.9,104.3,122.6,104.3,123.3z M104.3,115.6c0,1.1,0,2.3,0,3.4c0,0.4,0.1,0.7,0.2,0.8c0.1,0.1,0.4,0.2,0.8,0.2
					c1.2,0,1.9,0,2.2,0c0.3,0,0.5-0.2,0.8-0.4c0.5-0.4,0.7-1,0.7-1.8c0-1-0.3-1.8-1-2.4c-0.6-0.6-1.5-1-2.5-1
					c-0.4,0-0.7,0.1-0.9,0.2C104.4,114.8,104.3,115.1,104.3,115.6z"/>
				<path id="XMLID_20_" fill="#FFFFFF" d="M120,121.1c0,1,0,1.9,0,2.9c0,0.2,0,0.4,0,0.7c0.1,0.7,0.8,1,2,0.9c0.2,0,0.3,0,0.3,0.2
					c0,0.2-0.1,0.3-0.4,0.4c-0.2,0-0.3,0.1-0.5,0.1c-0.5,0-0.9,0.1-1.4,0.1c-0.3,0-0.6,0.1-1.1,0.1c-1.2,0.2-2,0.3-2.4,0.4
					c-0.3,0.1-0.5,0.1-0.6,0.1c-0.1,0-0.2-0.1-0.2-0.3c0-0.1,0.1-0.2,0.3-0.2c0.7-0.2,1.2-0.5,1.5-0.9c0.3-0.4,0.4-1,0.4-1.9
					c0-0.6,0-1.2,0-1.9c0-0.4-0.1-0.9-0.4-1.3c-0.3-0.5-0.7-1.1-1.1-1.9c-0.5-0.9-1-1.8-1.5-2.7c-0.6-1.1-1.3-1.6-2.1-1.7
					c-0.2,0-0.4-0.1-0.4-0.3c0-0.2,0.1-0.3,0.3-0.3c0.2,0,0.4,0,0.8,0c0.7,0,1.3,0,1.9,0c0.5,0,1.1-0.1,1.6-0.2
					c0.4-0.1,0.7-0.1,0.8-0.2c0.3,0,0.4,0,0.4,0.2c0,0.1-0.1,0.2-0.3,0.3c-0.5,0.2-0.8,0.4-0.8,0.7c0,0.3,0.2,0.8,0.7,1.7
					c0.3,0.5,0.5,0.9,0.8,1.4c0.3,0.6,0.5,0.9,0.6,1.1c0.2,0.4,0.4,0.6,0.6,0.6c0.2,0,0.5-0.4,0.8-1.1c0.1-0.2,0.3-0.6,0.7-1.3
					c0.7-1.4,1.1-2.3,1.1-2.6c0-0.3-0.2-0.5-0.5-0.7c-0.3-0.2-0.7-0.3-1.1-0.2c-0.2,0-0.3-0.1-0.3-0.2c0-0.2,0.1-0.3,0.3-0.4
					c0.2,0,0.3-0.1,0.5-0.1c0.2,0,0.4,0,0.6,0c0.3,0,0.6-0.1,1-0.1c0.2,0,0.5-0.1,0.7-0.2c0.3-0.1,0.5-0.2,0.8-0.2
					c0.2-0.1,0.5-0.1,0.8-0.2c0.2,0,0.3,0,0.3,0.2c0,0.1-0.1,0.3-0.4,0.4c-0.5,0.2-0.9,0.5-1.2,0.9c-0.3,0.4-0.7,1.1-1.1,2.1
					c-0.8,1.8-1.6,3.2-2.3,4.4c-0.1,0.2-0.2,0.4-0.2,0.5C120.1,120.6,120,120.8,120,121.1z"/>
			</g>
		</g>
		<g id="XMLID_96_">
			<path id="XMLID_103_" fill="#FFFFFF" d="M144.8,113.1c-4.3-0.1-8.8,0.6-13.1,1.2c-0.5,0.1-0.4,0.9,0.1,0.9
				c4.3-0.1,8.9-0.2,13.1-1.1C145.6,114,145.4,113.1,144.8,113.1z"/>
			<path id="XMLID_102_" fill="#FFFFFF" d="M138,102.5c-1.3,0.5-2.4,1.3-3.6,2.1c-1.3,0.8-2.6,1.6-3.9,2.6c-0.1,0.1,0,0.4,0.2,0.3
				c1.3-0.5,2.4-1.2,3.6-1.9c1.3-0.7,2.9-1.4,4-2.4C138.7,102.9,138.3,102.3,138,102.5z"/>
			<path id="XMLID_101_" fill="#FFFFFF" d="M135.3,126c-1.1-1.4-2.9-2.6-4.4-3.6c-0.3-0.2-0.6,0.2-0.4,0.5c1.3,1.3,2.7,2.8,4.4,3.6
				C135.2,126.6,135.5,126.2,135.3,126z"/>
			<path id="XMLID_100_" fill="#FFFFFF" d="M133.5,97.6c-0.9,0.7-1.5,1.7-2.2,2.5c-0.7,0.8-1.3,1.6-1.9,2.4
				c-0.1,0.2,0.1,0.3,0.3,0.2c0.8-0.8,1.6-1.6,2.4-2.4c0.7-0.7,1.5-1.5,2-2.3C134.2,97.7,133.8,97.4,133.5,97.6z"/>
			<path id="XMLID_99_" fill="#FFFFFF" d="M128.7,128.5c-0.5-0.7-0.9-1.4-1.4-2.1c-0.2-0.2-0.5,0.1-0.4,0.3c0.3,0.7,0.7,1.5,1.1,2.2
				c0.3,0.6,0.7,1.4,1.2,1.9c0.2,0.2,0.6,0,0.6-0.3C129.6,129.8,129.1,129.2,128.7,128.5z"/>
			<path id="XMLID_98_" fill="#FFFFFF" d="M136.7,119.2c-1.5-0.5-3.2-0.6-4.8-0.7c-0.3,0-0.3,0.4-0.1,0.5c1.6,0.3,3.2,0.8,4.8,0.8
				C136.9,119.8,137,119.3,136.7,119.2z"/>
			<path id="XMLID_97_" fill="#FFFFFF" d="M135.8,110.2c-1.4,0.1-3,0.4-4.4,0.9c-0.3,0.1-0.2,0.5,0.1,0.5c1.4-0.1,3-0.3,4.4-0.7
				C136.2,110.7,136.2,110.2,135.8,110.2z"/>
		</g>
		<g id="XMLID_88_">
			<path id="XMLID_95_" fill="#FFFFFF" d="M28.1,107.2c4.3-0.1,8.9,0.6,13.1,1.2c0.5,0.1,0.4,0.9-0.1,0.9c-4.3-0.1-8.9-0.2-13.1-1.1
				C27.3,108.2,27.5,107.2,28.1,107.2z"/>
			<path id="XMLID_94_" fill="#FFFFFF" d="M35,96.6c1.3,0.5,2.4,1.3,3.6,2.1c1.3,0.8,2.6,1.6,3.9,2.6c0.1,0.1,0,0.4-0.2,0.3
				c-1.3-0.5-2.4-1.2-3.6-1.9c-1.3-0.7-2.9-1.4-4-2.4C34.3,97,34.6,96.5,35,96.6z"/>
			<path id="XMLID_93_" fill="#FFFFFF" d="M37.6,120.1c1.1-1.4,2.9-2.6,4.4-3.6c0.3-0.2,0.6,0.2,0.4,0.5c-1.3,1.3-2.7,2.8-4.4,3.6
				C37.7,120.8,37.4,120.4,37.6,120.1z"/>
			<path id="XMLID_92_" fill="#FFFFFF" d="M39.4,91.8c0.9,0.7,1.5,1.7,2.2,2.5c0.7,0.8,1.3,1.6,1.9,2.4c0.1,0.2-0.1,0.3-0.3,0.2
				c-0.8-0.8-1.6-1.6-2.4-2.4c-0.7-0.7-1.5-1.5-2-2.3C38.7,91.8,39.1,91.6,39.4,91.8z"/>
			<path id="XMLID_91_" fill="#FFFFFF" d="M44.2,122.7c0.5-0.7,0.9-1.4,1.4-2.1c0.2-0.2,0.5,0.1,0.4,0.3c-0.3,0.7-0.7,1.5-1.1,2.2
				c-0.3,0.6-0.7,1.4-1.2,1.9c-0.2,0.2-0.6,0-0.6-0.3C43.3,123.9,43.8,123.3,44.2,122.7z"/>
			<path id="XMLID_90_" fill="#FFFFFF" d="M36.2,113.4c1.5-0.5,3.2-0.6,4.8-0.7c0.3,0,0.3,0.4,0.1,0.5c-1.6,0.3-3.2,0.8-4.8,0.8
				C36,114,35.9,113.5,36.2,113.4z"/>
			<path id="XMLID_89_" fill="#FFFFFF" d="M37.1,104.3c1.4,0.1,3,0.4,4.4,0.9c0.3,0.1,0.2,0.5-0.1,0.5c-1.4-0.1-3-0.3-4.4-0.7
				C36.7,104.9,36.7,104.3,37.1,104.3z"/>
		</g>
	</g>
</g>
</svg>
