<?xml version="1.0" encoding="utf-8"?>
<!-- Generator: Adobe Illustrator 19.0.0, SVG Export Plug-In . SVG Version: 6.00 Build 0)  -->
<svg version="1.1" baseProfile="tiny" id="Warstwa_1"
	 xmlns="http://www.w3.org/2000/svg" xmlns:xlink="http://www.w3.org/1999/xlink" x="0px" y="0px" width="93px" height="84px"
	 viewBox="-201.3 483.9 93 84" xml:space="preserve">
<g id="XMLID_2_">
	<path id="XMLID_116_" fill="#B59584" d="M-175.3,517.4c3.6-3.9,9.2-2.2,9.2-2.2c0.4,0.4,0.8,0.9,1.2,1.5c3.5,4.8,8.1,14.8,7.2,21.8
		c-1,7.9-11.2,9.3-16.9,5.9c-5.7-3.5-1.4-12.8-1.1-16.4c0.2-2.5,0.2-6.7,0.3-9C-175.3,518.1-175.3,517.4-175.3,517.4z"/>
	<path id="XMLID_115_" fill="#99786A" d="M-169.8,509.2c10.3-0.9,19,3.3,16.7,6.3c-2.7,1.1-6.4,1.7-11.8,1.4
		c-0.4-0.6-0.8-1.1-1.2-1.5c0,0-5.5-1.8-9.2,2.2c0,0,0,0.6,0,1.7c-0.3,0.2-4.2,2.2-8.4,3l0,0c0,0-3.9,0-3.6-2.1
		C-187,517.8-180.3,510-169.8,509.2z"/>
	<path id="XMLID_114_" fill="#B59584" d="M-187.3,520c-0.3,2.1,3.6,2.1,3.6,2.1l0,0c-2.3,0.4-4.8,0.4-6.7-0.6
		c-4.5-2.2-8.6-16.4,5.3-27.2c12.2-9.6,28.6-2.2,33,3.6c3.5,4.5,7.4,13.9-1,17.5c2.3-3-6.4-7.1-16.7-6.3
		C-180.3,510-187,517.8-187.3,520z"/>
	<g id="XMLID_103_">
		<path id="XMLID_113_" fill="#B59584" d="M-184.5,520c0,0,0.5-0.1,1.2-0.2c0.7-0.2,1.7-0.3,2.7-0.5c0.5-0.1,1-0.2,1.4-0.2
			s0.9-0.2,1.2-0.3c0.2-0.1,0.3-0.1,0.5-0.2s0.2-0.1,0.4-0.1c0.2-0.1,0.3-0.1,0.3-0.1h0.1c0.2,0,0.2,0.1,0.3,0.2
			c0,0.1,0,0.2-0.1,0.2c0,0-0.1,0.1-0.3,0.2c-0.1,0.1-0.2,0.2-0.4,0.2s-0.3,0.2-0.5,0.2s-0.4,0.2-0.6,0.2c-0.2,0.1-0.4,0.2-0.6,0.2
			c-0.5,0.1-1,0.2-1.4,0.3s-1,0.2-1.5,0.2c-0.5,0.1-1,0.1-1.3,0.1c-0.8,0-1.3,0-1.3,0l0,0c-0.2,0-0.2-0.2-0.2-0.3
			C-184.7,520.1-184.6,520-184.5,520z"/>
		<path id="XMLID_112_" fill="#B59584" d="M-184.2,517.3c0,0,0.5,0,1.2,0c0.3,0,0.8,0,1.2,0c0.5,0,0.9,0,1.4,0s1,0,1.4-0.1
			c0.2,0,0.4,0,0.6,0c0.2,0,0.4,0,0.6,0c0.7-0.1,1.2-0.1,1.2-0.1l0,0c0.2,0,0.2,0.1,0.2,0.2c0,0.1-0.1,0.2-0.2,0.2
			c0,0-0.5,0.2-1.2,0.4c-0.4,0.1-0.8,0.2-1.3,0.2c-0.5,0.1-1,0.1-1.4,0.1c-0.2,0-0.5,0-0.7,0c-0.2,0-0.5,0-0.7,0
			c-0.5-0.1-0.9-0.1-1.3-0.2c-0.4-0.1-0.6-0.2-0.9-0.2c-0.2-0.1-0.3-0.1-0.3-0.1l0,0c-0.2-0.1-0.2-0.2-0.2-0.3
			C-184.4,517.4-184.4,517.3-184.2,517.3z"/>
		<path id="XMLID_111_" fill="#B59584" d="M-181.3,513.8c0,0,0.1,0,0.2,0c0.2,0,0.4,0,0.6,0.1c0.2,0.1,0.6,0.1,1,0.2
			c0.3,0.1,0.7,0.2,1,0.3c0.3,0.2,0.7,0.3,1,0.5c0.3,0.2,0.6,0.4,0.8,0.5c0.2,0.2,0.4,0.4,0.6,0.5s0.2,0.2,0.2,0.2
			c0.1,0.1,0.1,0.2,0,0.3c-0.1,0.1-0.2,0.1-0.2,0.1h-0.1c0,0-0.1,0-0.2-0.1s-0.3-0.2-0.6-0.3c-0.2-0.1-0.6-0.2-0.8-0.3
			c-0.2-0.1-0.3-0.1-0.5-0.2c-0.2-0.1-0.3-0.2-0.5-0.2c-0.6-0.2-1.4-0.5-1.8-0.7c-0.2-0.1-0.5-0.2-0.6-0.2c-0.2-0.1-0.2-0.1-0.2-0.1
			c-0.2-0.1-0.2-0.2-0.2-0.3C-181.6,513.8-181.5,513.8-181.3,513.8L-181.3,513.8z"/>
		<path id="XMLID_110_" fill="#B59584" d="M-176.6,511.5c0,0,0.2,0.2,0.5,0.6c0.2,0.3,0.6,0.8,0.8,1.4c0.2,0.5,0.5,1,0.6,1.4
			c0.2,0.4,0.2,0.7,0.2,0.7c0,0.2-0.1,0.3-0.2,0.3c-0.1,0-0.2,0-0.2-0.1l0,0c0,0-0.2-0.2-0.5-0.6c-0.2-0.3-0.6-0.8-0.8-1.4
			c-0.2-0.5-0.5-1-0.6-1.4c-0.2-0.4-0.2-0.7-0.2-0.7c0-0.2,0.1-0.3,0.2-0.3C-176.7,511.3-176.7,511.4-176.6,511.5L-176.6,511.5z"/>
		<path id="XMLID_109_" fill="#B59584" d="M-172.9,510.4c0,0,0.2,0.2,0.3,0.6c0.1,0.2,0.2,0.4,0.2,0.6c0.1,0.2,0.1,0.5,0.2,0.8
			c0.1,0.6,0.2,1.1,0.2,1.5s0,0.7,0,0.7c0,0.2-0.2,0.2-0.2,0.2c-0.1,0-0.2-0.1-0.2-0.2l0,0c0,0-0.1-0.2-0.2-0.6
			c-0.2-0.4-0.2-0.9-0.3-1.4c-0.1-0.2-0.1-0.5-0.1-0.8c0-0.2-0.1-0.5-0.1-0.7c-0.1-0.4-0.1-0.7-0.1-0.7l0,0c0-0.2,0.2-0.2,0.2-0.2
			C-173,510.3-172.9,510.3-172.9,510.4z"/>
		<path id="XMLID_108_" fill="#B59584" d="M-169.7,509.9c0,0,0.1,0.2,0.2,0.6c0.1,0.2,0.1,0.4,0.1,0.7c0,0.2,0,0.6,0.1,0.8
			c0,0.2,0,0.6-0.1,0.8c0,0.2-0.1,0.5-0.2,0.7c-0.1,0.2-0.2,0.4-0.2,0.5c-0.1,0.1-0.1,0.2-0.1,0.2c-0.1,0.2-0.2,0.2-0.3,0.1
			c-0.1-0.1-0.2-0.1-0.2-0.2V514c0,0,0-0.1,0-0.2s0-0.2,0-0.5c0-0.2,0-0.4,0-0.6s0-0.5,0-0.8c0-0.6,0-1,0.1-1.4
			c0-0.4,0.1-0.6,0.1-0.6c0-0.2,0.2-0.2,0.3-0.2C-169.9,509.7-169.8,509.8-169.7,509.9z"/>
		<path id="XMLID_107_" fill="#B59584" d="M-165.9,509.8c0,0,0,0.1,0.1,0.2c0,0.2,0.1,0.3,0.1,0.6s0,0.5-0.1,0.8
			c0,0.2-0.1,0.3-0.1,0.5c0,0.2-0.1,0.3-0.2,0.5c-0.1,0.2-0.1,0.3-0.2,0.5c-0.1,0.2-0.2,0.2-0.2,0.4c-0.1,0.2-0.2,0.2-0.2,0.4
			c-0.1,0.2-0.2,0.2-0.2,0.3c-0.3,0.4-0.5,0.6-0.5,0.6c-0.1,0.1-0.2,0.1-0.4,0c-0.1-0.1-0.1-0.2-0.1-0.2l0,0c0,0,0.1-0.3,0.2-0.6
			c0.1-0.1,0.1-0.2,0.2-0.3c0.1-0.1,0.1-0.2,0.2-0.3c0.1-0.2,0.2-0.5,0.3-0.8c0.1-0.2,0.1-0.2,0.2-0.4c0-0.2,0.1-0.2,0.1-0.4
			c0.1-0.2,0.2-0.5,0.2-0.7c0.1-0.2,0.1-0.4,0.1-0.5c0-0.1,0.1-0.2,0.1-0.2c0-0.2,0.2-0.2,0.3-0.2C-166,509.6-166,509.7-165.9,509.8
			L-165.9,509.8z"/>
		<path id="XMLID_106_" fill="#B59584" d="M-162.4,510c0,0,0,0.1-0.1,0.2c-0.1,0.2-0.1,0.4-0.2,0.6c-0.1,0.2-0.2,0.6-0.4,0.9
			s-0.3,0.6-0.6,1c-0.1,0.2-0.2,0.3-0.3,0.5c-0.1,0.2-0.2,0.3-0.3,0.4c-0.2,0.2-0.2,0.2-0.4,0.4c-0.1,0.1-0.2,0.2-0.3,0.3
			c-0.5,0.3-0.8,0.6-0.8,0.6c-0.2,0.1-0.2,0-0.3-0.1c-0.1-0.1-0.1-0.2,0-0.3l0,0c0,0,0.2-0.3,0.6-0.6c0.1-0.1,0.2-0.2,0.2-0.3
			c0.1-0.1,0.2-0.2,0.3-0.4c0.1-0.2,0.2-0.2,0.3-0.4c0.1-0.2,0.2-0.3,0.3-0.4c0.2-0.3,0.4-0.6,0.6-0.9c0.2-0.3,0.3-0.6,0.5-0.8
			c0.2-0.5,0.5-0.8,0.5-0.8c0.1-0.2,0.2-0.2,0.3-0.1C-162.4,509.8-162.4,510-162.4,510L-162.4,510z"/>
		<path id="XMLID_105_" fill="#B59584" d="M-158.5,511.8c0,0-0.1,0.1-0.2,0.2c-0.2,0.2-0.3,0.4-0.6,0.6c-0.2,0.2-0.6,0.5-0.9,0.8
			c-0.2,0.2-0.3,0.2-0.6,0.4c-0.2,0.2-0.4,0.2-0.6,0.4c-0.2,0.1-0.4,0.2-0.6,0.3s-0.4,0.2-0.6,0.3c-0.2,0.1-0.4,0.2-0.6,0.2
			s-0.3,0.2-0.6,0.2c-0.6,0.2-1.1,0.2-1.1,0.2c-0.2,0-0.2-0.1-0.3-0.2c0-0.1,0-0.2,0.2-0.2l0,0c0,0,0.4-0.2,1-0.5
			c0.3-0.2,0.6-0.3,1-0.5c0.4-0.2,0.7-0.4,1.1-0.6c0.4-0.2,0.7-0.5,1-0.6c0.3-0.2,0.6-0.5,0.9-0.6c0.2-0.2,0.5-0.3,0.6-0.5
			c0.2-0.1,0.2-0.2,0.2-0.2c0.1-0.1,0.2-0.1,0.3,0.1C-158.4,511.6-158.4,511.7-158.5,511.8L-158.5,511.8z"/>
		<path id="XMLID_104_" fill="#B59584" d="M-155,514c0,0-0.1,0.1-0.3,0.2c-0.2,0.2-0.6,0.3-1,0.5c-0.4,0.2-0.9,0.4-1.4,0.6
			c-0.2,0.1-0.6,0.2-0.8,0.2c-0.2,0.1-0.6,0.2-0.8,0.2c-0.6,0.1-1.1,0.3-1.7,0.3c-0.6,0.1-1,0.2-1.4,0.2c-0.9,0-1.4,0-1.4,0
			c-0.2,0-0.2-0.2-0.2-0.2s0.1-0.2,0.2-0.2l0,0c0,0,0.6-0.1,1.4-0.2c0.2,0,0.4-0.1,0.6-0.2c0.2-0.1,0.5-0.1,0.7-0.2
			c0.5-0.1,1-0.2,1.6-0.4c0.2-0.1,0.6-0.2,0.8-0.2c0.2-0.1,0.6-0.2,0.8-0.2c0.5-0.2,1-0.3,1.4-0.4c0.4-0.2,0.7-0.2,1-0.3
			c0.2-0.1,0.4-0.1,0.4-0.1c0.2-0.1,0.2,0,0.3,0.2C-154.9,513.8-155,513.9-155,514L-155,514z"/>
	</g>
	<path id="XMLID_102_" fill="#99786A" d="M-168,516.9c-1.6,1.3,4.2,11.8,2.3,17.6s-5.9,8.8-3.1,10.2c2.7,1.4,7.6-0.6,8.9-7.1
		C-158.4,529.7-165.9,515-168,516.9z"/>
	<g id="XMLID_95_">
		<path id="XMLID_10_" fill="#99786A" d="M-152.6,503.4c0.5,0.5,0.8,1,1,1.7c0.2,0.7,1.4,0.4,1.1-0.3c-0.2-0.8-0.7-1.5-1.3-2.2
			C-152.4,502-153.2,502.8-152.6,503.4L-152.6,503.4z"/>
	</g>
	<g id="XMLID_88_">
		<path id="XMLID_9_" fill="#99786A" d="M-152.9,506.4c0.6,1.4,0.9,2.8,0.9,4.3c0,0.7,1.1,0.7,1.1,0c0.1-1.7-0.2-3.4-1-4.9
			C-152.2,505.2-153.2,505.8-152.9,506.4L-152.9,506.4z"/>
	</g>
	<path id="XMLID_87_" fill="#B59584" d="M-141.5,535.4c4.5-0.1,6.7,4.3,6.7,4.3c0,0.5-0.1,1-0.2,1.6c-0.9,4.9-4.3,13.6-9.1,17.1
		c-5.4,4-12.2-1.4-13.4-6.8s7-8.3,9.4-10.2c1.7-1.4,4.3-3.8,5.7-5.1C-141.9,535.8-141.5,535.4-141.5,535.4z"/>
	<path id="XMLID_86_" fill="#99786A" d="M-133.3,534c6.5,5.8,9.1,13.6,5.9,13.9c-2.2-1-4.7-3-7.7-6.4c0.1-0.6,0.2-1.1,0.2-1.6
		c0,0-2.2-4.4-6.7-4.3c0,0-0.4,0.4-1,1c-0.2-0.1-3.9-1.3-6.7-3.5l0,0c0,0-2.2-2.4-0.8-3.4C-148.6,528.5-139.9,528.1-133.3,534z"/>
	<path id="XMLID_85_" fill="#B59584" d="M-150.1,529.6c-1.5,1,0.8,3.4,0.8,3.4l0,0c-1.6-1.2-3.1-2.7-3.6-4.5
		c-1.3-4,5.1-14.8,19.7-12.6c13,1.9,18,16.3,17.1,22.4c-0.7,4.7-4.2,12.6-11.2,9.6c3.1-0.3,0.6-8.1-5.9-13.9
		C-139.9,528.1-148.6,528.5-150.1,529.6z"/>
	<g id="XMLID_74_">
		<path id="XMLID_84_" fill="#B59584" d="M-148.5,531.3c0,0,0.3,0.2,0.9,0.6c0.5,0.4,1.2,0.9,1.8,1.4c0.3,0.2,0.7,0.5,1,0.7
			c0.3,0.2,0.6,0.4,0.9,0.6c0.2,0.1,0.2,0.2,0.4,0.2c0.1,0.1,0.2,0.1,0.3,0.2c0.2,0.1,0.2,0.2,0.2,0.2l0,0c0.1,0.1,0.2,0.2,0.1,0.3
			c-0.1,0.1-0.2,0.1-0.2,0.1c0,0-0.1,0-0.3-0.1c-0.1,0-0.2-0.1-0.3-0.1c-0.2-0.1-0.3-0.1-0.4-0.2c-0.2-0.1-0.3-0.2-0.5-0.2
			s-0.3-0.2-0.6-0.2c-0.3-0.2-0.7-0.5-1-0.7c-0.3-0.2-0.7-0.5-1-0.8c-0.3-0.2-0.6-0.6-0.8-0.7c-0.5-0.5-0.7-0.8-0.7-0.8l0,0
			c-0.1-0.1-0.1-0.2,0-0.3C-148.6,531.3-148.5,531.3-148.5,531.3z"/>
		<path id="XMLID_83_" fill="#B59584" d="M-146.6,529.9c0,0,0.2,0.3,0.7,0.7c0.2,0.2,0.5,0.5,0.7,0.7c0.2,0.2,0.6,0.6,0.8,0.9
			c0.3,0.2,0.6,0.6,0.8,0.8c0.2,0.2,0.2,0.2,0.4,0.4c0.2,0.1,0.2,0.2,0.3,0.3c0.5,0.4,0.7,0.6,0.7,0.6l0,0c0.1,0.1,0.1,0.2,0,0.3
			c-0.1,0.1-0.2,0.1-0.2,0.1c0,0-0.4-0.2-0.9-0.5c-0.2-0.2-0.6-0.4-0.9-0.6c-0.3-0.2-0.6-0.6-0.9-0.8c-0.2-0.2-0.3-0.3-0.4-0.5
			c-0.2-0.2-0.2-0.3-0.4-0.5c-0.2-0.3-0.5-0.6-0.6-0.9c-0.2-0.2-0.3-0.5-0.4-0.6c-0.1-0.2-0.2-0.2-0.2-0.2l0,0
			c-0.1-0.1,0-0.2,0.1-0.3C-146.8,529.8-146.7,529.8-146.6,529.9z"/>
		<path id="XMLID_82_" fill="#B59584" d="M-142.8,529.6c0,0,0.1,0.1,0.2,0.2c0.1,0.1,0.2,0.2,0.3,0.5c0.2,0.2,0.2,0.4,0.4,0.7
			c0.2,0.2,0.2,0.6,0.4,0.8c0.2,0.3,0.2,0.6,0.3,0.9c0.1,0.3,0.2,0.6,0.2,0.8c0,0.2,0,0.5,0,0.6c0,0.2,0,0.2,0,0.2
			c0,0.1-0.1,0.2-0.2,0.2c-0.1,0-0.2-0.1-0.2-0.2l0,0c0,0,0-0.1-0.1-0.2c0-0.2-0.1-0.3-0.2-0.5c-0.1-0.2-0.2-0.5-0.2-0.7
			c-0.1-0.2-0.1-0.2-0.2-0.4c-0.1-0.2-0.1-0.2-0.2-0.4c-0.2-0.6-0.5-1.1-0.6-1.5c-0.1-0.2-0.2-0.4-0.2-0.5c-0.1-0.2-0.1-0.2-0.1-0.2
			c-0.1-0.1,0-0.2,0.2-0.3C-142.9,529.6-142.8,529.6-142.8,529.6L-142.8,529.6z"/>
		<path id="XMLID_81_" fill="#B59584" d="M-138.6,531.2c0,0,0,0.2-0.1,0.6c-0.1,0.4-0.2,0.8-0.3,1.3c-0.2,0.5-0.3,0.9-0.5,1.2
			c-0.2,0.3-0.3,0.6-0.3,0.6c-0.1,0.1-0.2,0.2-0.3,0.1c-0.1-0.1-0.1-0.2-0.1-0.2l0,0c0,0,0-0.2,0.1-0.6c0.1-0.4,0.2-0.8,0.3-1.3
			s0.3-0.9,0.5-1.2c0.2-0.3,0.3-0.6,0.3-0.6c0.1-0.1,0.2-0.2,0.3-0.1C-138.7,531-138.6,531.1-138.6,531.2L-138.6,531.2z"/>
		<path id="XMLID_80_" fill="#B59584" d="M-135.8,532.9c0,0-0.1,0.2-0.2,0.6c-0.1,0.2-0.2,0.3-0.2,0.6c-0.1,0.2-0.2,0.4-0.4,0.6
			c-0.2,0.4-0.6,0.7-0.8,1c-0.2,0.2-0.4,0.4-0.4,0.4c-0.1,0.1-0.2,0.1-0.3,0s-0.1-0.2,0-0.2l0,0c0,0,0.1-0.2,0.2-0.5
			c0.2-0.3,0.4-0.6,0.6-1c0.2-0.2,0.2-0.3,0.4-0.5c0.2-0.2,0.2-0.3,0.4-0.5c0.2-0.2,0.4-0.4,0.4-0.4l0,0
			C-136,532.7-135.8,532.7-135.8,532.9C-135.8,532.7-135.8,532.8-135.8,532.9z"/>
		<path id="XMLID_79_" fill="#B59584" d="M-133.7,534.5c0,0-0.1,0.2-0.3,0.5c-0.1,0.2-0.2,0.3-0.4,0.5c-0.2,0.2-0.3,0.3-0.5,0.5
			s-0.3,0.3-0.6,0.5c-0.2,0.2-0.4,0.2-0.5,0.3c-0.2,0.1-0.3,0.2-0.4,0.2c-0.1,0-0.2,0.1-0.2,0.1c-0.1,0-0.2,0-0.2-0.2
			c0-0.1,0-0.2,0.1-0.2l0,0c0,0,0-0.1,0.1-0.1c0.1-0.1,0.2-0.2,0.3-0.2c0.1-0.2,0.2-0.2,0.4-0.4s0.3-0.3,0.5-0.5
			c0.3-0.3,0.6-0.6,0.9-0.8c0.2-0.2,0.5-0.3,0.5-0.3c0.1-0.1,0.2-0.1,0.3,0.1C-133.6,534.3-133.6,534.4-133.7,534.5z"/>
		<path id="XMLID_78_" fill="#B59584" d="M-131.3,536.8c0,0,0,0.1-0.1,0.2c-0.1,0.1-0.2,0.2-0.3,0.4c-0.2,0.2-0.3,0.3-0.6,0.4
			c-0.1,0.1-0.2,0.2-0.3,0.2c-0.1,0.1-0.2,0.2-0.3,0.2c-0.2,0.1-0.2,0.1-0.4,0.2c-0.2,0.1-0.2,0.1-0.4,0.1c-0.1,0-0.2,0.1-0.3,0.1
			c-0.1,0-0.2,0-0.3,0.1c-0.4,0-0.6,0-0.6,0c-0.1,0-0.2-0.1-0.2-0.2c0-0.1,0.1-0.2,0.2-0.2l0,0c0,0,0.2-0.1,0.6-0.2
			c0.1,0,0.2-0.1,0.2-0.1c0.1-0.1,0.2-0.1,0.3-0.2c0.2-0.1,0.4-0.2,0.6-0.2c0.1-0.1,0.2-0.1,0.3-0.2c0.1-0.1,0.2-0.1,0.3-0.2
			c0.2-0.1,0.4-0.2,0.6-0.3s0.3-0.2,0.4-0.2c0.1-0.1,0.2-0.1,0.2-0.1c0.1-0.1,0.2,0,0.3,0.1C-131.3,536.6-131.3,536.7-131.3,536.8
			L-131.3,536.8z"/>
		<path id="XMLID_77_" fill="#B59584" d="M-129.4,539c0,0-0.1,0.1-0.2,0.1c-0.2,0.1-0.3,0.2-0.5,0.2c-0.2,0.1-0.5,0.2-0.7,0.3
			c-0.3,0.1-0.6,0.2-0.9,0.2c-0.2,0-0.3,0.1-0.5,0.1s-0.3,0.1-0.5,0.1s-0.3,0-0.5,0s-0.2,0-0.4,0c-0.5-0.1-0.8-0.2-0.8-0.2
			c-0.1,0-0.2-0.2-0.2-0.2c0-0.1,0.1-0.2,0.2-0.2l0,0c0,0,0.3,0,0.7,0c0.1,0,0.2,0,0.3-0.1c0.2,0,0.2,0,0.4-0.1
			c0.2,0,0.2-0.1,0.4-0.1s0.3-0.1,0.4-0.1c0.3-0.1,0.6-0.2,0.9-0.2c0.2-0.1,0.6-0.2,0.7-0.2c0.5-0.1,0.7-0.2,0.7-0.2
			c0.1,0,0.2,0.1,0.2,0.2C-129.3,539-129.3,539-129.4,539L-129.4,539z"/>
		<path id="XMLID_76_" fill="#B59584" d="M-128.2,542.4c0,0-0.1,0-0.2,0s-0.4,0-0.7,0c-0.3,0-0.6-0.1-1-0.1c-0.2,0-0.4-0.1-0.6-0.1
			c-0.2-0.1-0.4-0.1-0.6-0.2c-0.2-0.1-0.4-0.1-0.6-0.2s-0.3-0.2-0.6-0.2c-0.2-0.1-0.3-0.2-0.5-0.2c-0.2-0.1-0.3-0.2-0.4-0.2
			c-0.5-0.3-0.8-0.6-0.8-0.6c-0.1-0.1-0.1-0.2-0.1-0.3c0.1-0.1,0.2-0.1,0.2-0.1l0,0c0,0,0.3,0.2,0.9,0.3c0.2,0.1,0.6,0.2,0.9,0.3
			c0.3,0.2,0.6,0.2,1,0.3c0.3,0.1,0.7,0.2,1,0.2c0.3,0.1,0.6,0.2,0.9,0.2c0.2,0.1,0.5,0.1,0.6,0.2c0.2,0,0.2,0.1,0.2,0.1
			c0.1,0,0.2,0.2,0.2,0.2C-128.1,542.3-128.1,542.4-128.2,542.4L-128.2,542.4z"/>
		<path id="XMLID_75_" fill="#B59584" d="M-127.6,545.9c0,0-0.1,0-0.3-0.1c-0.2-0.1-0.5-0.2-0.8-0.3s-0.7-0.3-1.1-0.5
			c-0.2-0.1-0.4-0.2-0.6-0.3c-0.2-0.2-0.4-0.2-0.6-0.4c-0.4-0.2-0.8-0.6-1.2-0.8c-0.3-0.3-0.7-0.6-1-0.8c-0.5-0.6-0.8-0.9-0.8-0.9
			c-0.1-0.1-0.1-0.2,0-0.3c0.1-0.1,0.2-0.1,0.2,0l0,0c0,0,0.4,0.2,1,0.7c0.2,0.1,0.3,0.2,0.5,0.3s0.3,0.2,0.5,0.4
			c0.3,0.2,0.8,0.5,1.1,0.7c0.2,0.2,0.4,0.2,0.6,0.4c0.2,0.1,0.4,0.2,0.6,0.3c0.4,0.2,0.7,0.4,1,0.6s0.6,0.3,0.7,0.4
			c0.2,0.1,0.3,0.2,0.3,0.2c0.1,0.1,0.2,0.2,0.1,0.3C-127.4,545.8-127.5,545.9-127.6,545.9L-127.6,545.9z"/>
	</g>
	<path id="XMLID_73_" fill="#99786A" d="M-136.9,540.2c-1.4-0.2-4.2,9.5-8.1,11.8c-3.9,2.3-7.5,1.7-6.9,4.2c0.6,2.4,3.9,4.2,8,1.1
		C-139.1,553.6-134.9,540.4-136.9,540.2z"/>
	<g id="XMLID_66_">
		<path id="XMLID_8_" fill="#99786A" d="M-119.8,541.1c0,0.6-0.2,1-0.4,1.5c-0.3,0.6,0.6,1.2,1,0.6s0.6-1.4,0.6-2.1
			S-119.8,540.4-119.8,541.1L-119.8,541.1z"/>
	</g>
	<g id="XMLID_59_">
		<path id="XMLID_7_" fill="#99786A" d="M-121.8,542.7c-0.4,1.2-1.2,2.2-2.2,3.1c-0.6,0.5,0.2,1.3,0.8,0.8c1.1-1,1.9-2.2,2.4-3.5
			C-120.4,542.3-121.5,542.1-121.8,542.7L-121.8,542.7z"/>
	</g>
	<g id="XMLID_49_">
		<path id="XMLID_56_" fill="#99786A" d="M-190.9,506.6c0,0,0.2,0.1,0.4,0.2c0.1,0.1,0.2,0.2,0.2,0.2c0.1,0.1,0.1,0.2,0.2,0.3
			c0.1,0.2,0,0.5-0.2,0.7c-0.1,0.2-0.2,0.3-0.2,0.3s-0.3,0-0.5-0.2c-0.2-0.2-0.3-0.4-0.3-0.6c0-0.1,0-0.2,0-0.4
			c0-0.1,0.1-0.2,0.1-0.3C-191,506.8-190.9,506.6-190.9,506.6z"/>
		<polygon id="XMLID_53_" fill="#99786A" points="-187.4,510.5 -186.4,509.3 -185.8,510.3 -187.4,510.5 -186.4,509.3 -185.8,510.4 
					"/>
		<path id="XMLID_50_" fill="#99786A" d="M-191.2,512.9c0,0,0.2,0,0.6,0.2c0.2,0.1,0.3,0.2,0.5,0.2s0.3,0.2,0.4,0.4
			c0.2,0.3,0.4,0.6,0.5,1c0.1,0.3,0.1,0.6,0.1,0.6s-0.2,0-0.6-0.2c-0.3-0.2-0.6-0.3-0.9-0.6c-0.1-0.2-0.2-0.3-0.3-0.5
			c-0.1-0.2-0.2-0.3-0.2-0.5C-191.2,513.1-191.2,512.9-191.2,512.9z"/>
	</g>
	<g id="XMLID_3_">
		<path id="XMLID_46_" fill="#99786A" d="M-141.5,519.5c0,0,0,0.2-0.1,0.5c0,0.1-0.1,0.2-0.2,0.3c-0.1,0.1-0.2,0.2-0.2,0.3
			c-0.2,0.2-0.5,0.2-0.7,0.2s-0.5-0.1-0.5-0.1s0-0.2,0.1-0.5c0.1-0.2,0.2-0.5,0.4-0.6c0.1-0.1,0.2-0.2,0.3-0.2
			c0.2-0.1,0.2-0.1,0.4-0.1C-141.8,519.4-141.5,519.5-141.5,519.5z"/>
		<polygon id="XMLID_28_" fill="#99786A" points="-143.6,524.7 -141.9,525.2 -142.6,526.1 -143.6,524.7 -141.9,525.2 -142.6,526.1 
					"/>
		<path id="XMLID_4_" fill="#99786A" d="M-147.6,522.3c0,0,0.1,0.2,0.1,0.6c0,0.2,0,0.3,0,0.6c0,0.2-0.1,0.4-0.2,0.6
			c-0.2,0.4-0.4,0.7-0.6,0.9c-0.2,0.2-0.5,0.3-0.5,0.3s-0.1-0.2-0.1-0.6c0-0.3,0.1-0.7,0.2-1.1c0.1-0.2,0.2-0.3,0.3-0.5
			c0.1-0.2,0.2-0.3,0.3-0.4C-147.9,522.4-147.6,522.3-147.6,522.3z"/>
	</g>
</g>
</svg>
