<?xml version="1.0" encoding="utf-8"?>
<!-- Generator: Adobe Illustrator 19.0.0, SVG Export Plug-In . SVG Version: 6.00 Build 0)  -->
<svg version="1.1" baseProfile="tiny" id="Warstwa_1"
	 xmlns="http://www.w3.org/2000/svg" xmlns:xlink="http://www.w3.org/1999/xlink" x="0px" y="0px" width="93px" height="84px"
	 viewBox="-251 378.9 93 84" xml:space="preserve">
<g>
	<path fill="#4FC3F7" d="M-215.3,424.7l-17.8-19.7c-1.2,0.7-1.9,1.9-1.9,3.4v31.5c0,2.2,1.8,3.9,3.9,3.9h33.1l-7.2-8
		C-210.8,435-215.1,430.3-215.3,424.7z"/>
	<path fill="#4FC3F7" d="M-176,404.4h-13.8l-2.9-5.7c-0.7-1.3-2-2.2-3.5-2.2H-211c-1.5,0-2.9,0.8-3.5,2.2l-1.3,2.7l-8.4-9.5
		c-1.5-1.6-3.9-1.7-5.6-0.3c-1.6,1.5-1.7,3.9-0.3,5.6l49.2,55.2c0.8,0.9,1.9,1.3,2.9,1.3c0.9,0,1.9-0.3,2.6-1
		c1.6-1.5,1.7-3.9,0.3-5.6l-2.9-3.3h2c2.2,0,3.9-1.8,3.9-3.9v-31.5C-172,406.2-173.8,404.4-176,404.4z M-205.9,412.5
		c0.7-0.2,1.5-0.2,2.3-0.2c6.5,0,11.8,5.3,11.8,11.8c0,1.3-0.2,2.5-0.6,3.6L-205.9,412.5z"/>
</g>
</svg>
