<?xml version="1.0" encoding="utf-8"?>
<!-- Generator: Adobe Illustrator 19.0.0, SVG Export Plug-In . SVG Version: 6.00 Build 0)  -->
<svg version="1.1" baseProfile="tiny" id="Warstwa_1"
	 xmlns="http://www.w3.org/2000/svg" xmlns:xlink="http://www.w3.org/1999/xlink" x="0px" y="0px" width="93px" height="84px"
	 viewBox="-201.3 483.9 93 84" xml:space="preserve">
<g>
	<path fill="#006355" d="M-143.9,502.2c-3.1-0.8-7,1.5-7-1.6c0-3.1,0.8-5.4,0-7.8c-0.4-1.3-1.4-1.9-2.2-2.2c0,0-0.1,0-0.1,0
		c0.3,1.6-1.7,10.6-3.2,9.9c-1.6-0.8-3.9-0.8-6.2,0.8c-1.2,0.8-1.8,2-2.1,3c0,0,0,0,0,0c0.4-0.3,1-0.5,2.1-0.7
		c3.9-0.8,7.5,6.5,7.8,7c2.8,4.2,3.9,0,3.9,0.8c0,0.8,0.8-7,5.5-7c2.5,0,6.2,1.6,6.2,1.6S-140.8,503-143.9,502.2z"/>
	<path fill="#FF735B" d="M-138.4,554.5c4.3-1.9,6.3-3.9,8.1-5.6c4-3.8,6.4-8.8,7.6-13.9c1.4-6,1.2-12.5-2-17.9
		c-4-6.8-12.3-10.4-20.4-8.3c-3.6,0.9-6,2.1-9.9,1.3c-4.7-0.9-9.1-4-14.1-3.6c-1.8,0.1-3.5,0.7-5.1,1.5c-6.9,3.2-11.8,9.5-13.2,16.4
		c-1.4,6.9,0.5,14.3,4.8,20.3c1.4,1.9,3,3.7,4.9,5.3c3.5,2.8,7.9,4.6,12.5,5.2c2.7,0.3,5.4,0.2,8.1,0.2c1.4,0,2.6,0.4,4,0.7
		C-147.5,557.2-143.6,556.8-138.4,554.5z"/>
	<path fill="#FC4949" d="M-159.6,518.8c-0.2-2.2-1.4-4.3-3.5-5.6c-2.6-1.6-6.1-1.7-8.9-0.4c-2.8,1.2-4.8,3.6-5.9,6.2
		c-1.1,2.6-1.5,5.4-1.6,8.2c-0.1,3.8,0.2,7.6,1.5,11.2c1.3,3.6,3.8,7,7.3,9.2c2.9,1.8,6.4,2.7,9.9,2.6c1.2-0.1,2.3-0.2,3.5-0.1
		c1.5,0.1,2.9,0.6,4.4,0.9c2.8,0.6,5.7,0.5,8.4-0.2c5-1.4,9-5.1,11.2-9.3c2.3-4.2,3-9,3.3-13.8c0.1-1.3,0.1-2.7-0.1-4
		c-0.8-4.2-4.8-7.8-9.4-8.5c-2.5-0.4-5.2,0-7.2,1.4c-2,1.4-3.1,3.8-2.6,6c0.4,1.6,1.5,2.9,2.3,4.3c1.3,2.2,1.8,4.7,1.7,7.2
		c-0.1,3.5-1.9,7.2-5.5,8.5c-2.6,0.9-5.5,0.4-8-0.8c-1.2-0.5-2.3-1.2-3.1-2c-2.1-2-2.5-5.1-1.9-7.7
		C-162.9,527.4-159.1,523.7-159.6,518.8z"/>
	<path fill="#FF7B69" d="M-157.4,523.2c-1.2,1.7-3,3.2-5.2,3.6c-3.1,0.6-6.2-1.2-8.6-3.1c-0.1-0.1-0.2-0.2-0.4-0.2
		c-0.6-0.2-1,0.5-0.9,1c0.1,0.5,0.4,1.1,0.1,1.6c-0.2,0.4-0.8,0.6-1.3,0.7c-0.5,0.1-1.1,0.1-1.5,0.4s-0.5,0.9-0.1,1.2
		c0.4,0.2,0.9,0,1.2,0.3c0.4,0.3,0.3,0.8,0,1.2c-0.3,0.3-0.7,0.6-0.9,1c-0.2,0.6,0.1,1.2,0.6,1.6c0.5,0.4,1.1,0.7,1.5,1.2
		c0.9,1,0.9,2.3,1.3,3.5c0.4,1.2,1.7,2.4,3,2c0.6-0.2,1.2-0.7,1.7-0.4c0.3,0.1,0.4,0.4,0.5,0.7c0.4,1.5-0.3,3.2,0.6,4.5
		c0.8,1.1,2.7,1.2,3.7,0.3c0.6-0.5,0.8-1.3,0.9-2c0.5-2.4,0.8-5.1,2.5-7c1.2-1.3,2.9-2.1,4.8-2.2c1.9-0.1,3.8,0.5,5.2,1.6
		c2.2,1.7,3,4.4,3.8,6.9c0.2,0.6,0.4,1.3,1,1.7c0.5,0.5,1.4,0.7,2,0.3c1.1-0.8,0.1-2.8,1.4-3.3c0.6-0.2,1.6,0.1,2-0.4
		c0.2-0.2,0.1-0.6,0.2-0.8c0.2-0.5,0.9-0.7,1.4-0.9c0.7-0.3,1.2-0.9,1.4-1.5c0.1-0.7-0.2-1.4-0.9-1.8c-0.4-0.2-0.9-0.2-1.3-0.4
		c-0.4-0.1-0.9-0.5-0.9-0.9c0-0.6,0.8-0.8,1.5-1c0.6-0.1,1.4-0.5,1.3-1.1c-0.1-0.4-0.6-0.6-0.7-0.9c-0.5-0.9,0.9-1.7,0.8-2.6
		c-0.1-0.6-0.8-0.9-1.4-1c-0.6-0.1-1.3,0.1-1.9,0.2c-2.5,0.4-5.2-0.3-7.1-1.8c-1.8-1.4-2.8-3.5-3.2-5.6c-0.4-2.1-0.3-4.2-0.1-6.3
		c0.1-0.7,0.1-1.6-0.5-2c-0.5-0.3-1.2-0.1-1.8-0.1c-0.8,0-1.6-0.1-2.4-0.2c-0.6-0.1-1,0.5-0.9,1
		C-154.8,516.1-154.9,519.6-157.4,523.2z"/>
	<g>
		<path fill="#FFBC41" d="M-167,516.8c0.3-0.6,0.4-1.3,0.1-1.9c-0.1-0.2-0.3-0.5-0.5-0.6c-0.4-0.2-0.9-0.2-1.2,0
			c-0.3,0.2-0.5,0.6-0.6,1c0,0.4,0,0.8,0.1,1.2c0.1,0.3,0.4,1.5,0.8,1.6C-167.8,518.3-167.1,517.1-167,516.8z"/>
		<path fill="#FFBC41" d="M-168.7,520.5c-0.1-0.4-0.2-0.7-0.5-1c-0.2-0.2-0.4-0.3-0.7-0.3c-0.3,0-0.6,0.2-0.6,0.5
			c-0.1,0.3,0,0.6,0.1,0.9c0.2,0.3,0.4,0.5,0.6,0.7c0.2,0.2,1.2,0.9,1.3,0.6c0-0.1-0.1-0.4-0.1-0.5
			C-168.7,521-168.7,520.8-168.7,520.5z"/>
		<path fill="#FFBC41" d="M-172.8,518.3c-0.2-0.6-0.7-1.2-1.3-1.3c-0.2,0-0.5,0-0.7,0.2c-0.1,0.1-0.1,0.3-0.1,0.5
			c0.1,0.6,0.3,1.1,0.7,1.6c0.3,0.3,1.1,1.3,1.4,0.9C-172.5,519.8-172.6,518.8-172.8,518.3z"/>
		<path fill="#FFBC41" d="M-177.3,523.4c-0.5,0.1-1,0.5-1,1c0,0.6,0.6,1.1,1.3,1.2c0.6,0.1,1.3,0,1.9-0.1c0.4-0.1,0.9-0.2,1.3-0.3
			C-174.4,524.2-176.1,523.2-177.3,523.4z"/>
		<path fill="#FFBC41" d="M-176.1,536.6c-0.4,0.1-0.9,0.3-1.1,0.7c-0.1,0.2-0.2,0.4-0.2,0.7c-0.1,0.3-0.1,0.6,0.1,0.9
			c0.1,0.2,0.3,0.3,0.6,0.4c0.4,0.1,0.9,0.1,1.3-0.1c0.5-0.2,0.8-0.6,1.1-1c0.4-0.6,0.9-1.3,1.1-2
			C-174.1,536.4-175.2,536.3-176.1,536.6z"/>
		<path fill="#FFBC41" d="M-173.6,541.7c-0.2,0.2-0.4,0.4-0.5,0.7c-0.1,0.3-0.1,0.5,0.1,0.8c0.2,0.4,0.8,0.5,1.3,0.3
			c0.4-0.2,0.8-0.5,1-0.9c0.4-0.7,0.8-1.6,0.6-2.3C-172.1,540.5-172.9,541-173.6,541.7z"/>
		<path fill="#FFBC41" d="M-170.4,544.1c-0.2,0.3-0.4,0.7-0.2,1c0.1,0.2,0.3,0.4,0.6,0.5c0.1,0,0.2,0.1,0.3,0.1
			c0.1,0,0.2-0.1,0.3-0.1c0.4-0.4,0.6-0.9,0.7-1.5c0-0.3,0.1-0.7,0-1.1c-0.1-0.4-0.1-0.4-0.4-0.2
			C-169.6,543.2-170.1,543.7-170.4,544.1z"/>
		<path fill="#FFBC41" d="M-178,528.9c-0.4,0.2-0.7,0.4-0.9,0.8c0,0.1,0,0.3,0,0.4c0.1,0.2,0.4,0.4,0.7,0.5c0.5,0.1,1-0.1,1.5-0.2
			c0.6-0.2,1.1-0.4,1.7-0.5c0.6-0.2,0.6-0.4,0-0.7C-175.8,528.7-177,528.5-178,528.9z"/>
		<path fill="#FFBC41" d="M-159.4,546.4c0,0.3,0,0.7,0.1,1c0.1,0.3,0.3,0.6,0.7,0.8c0.5,0.2,1,0,1.3-0.3c0.3-0.4,0.3-0.8,0.2-1.3
			c-0.1-0.4-0.4-0.8-0.7-1.2c-0.2-0.3-0.5-0.6-0.8-0.9c0,0-0.1-0.1-0.1-0.1c-0.2,0-0.5,0.6-0.5,0.8
			C-159.4,545.6-159.4,546-159.4,546.4z"/>
		<path fill="#FFBC41" d="M-161.8,516.1c0-0.2,0-0.4,0-0.7c-0.1-0.3-0.5-0.6-0.8-0.7c-0.4-0.1-0.8,0.1-1,0.3
			c-0.3,0.3-0.3,0.7-0.4,1.1c0,0.6-0.1,1.2-0.1,1.9c0,0.5-0.1,1.1,0.1,1.6C-162.9,519-162,517.3-161.8,516.1z"/>
		<path fill="#FFBC41" d="M-162.8,522.8c0.2-0.3,0.3-0.6,0.3-1c0-0.3-0.2-0.7-0.6-0.8c-0.4-0.1-0.8,0-1.1,0.2
			c-0.3,0.2-0.5,0.5-0.6,0.8c-0.4,0.9-0.6,1.9-0.4,2.8c0-0.1,1.1-0.7,1.3-0.8C-163.5,523.7-163.1,523.3-162.8,522.8z"/>
		<path fill="#FFBC41" d="M-141.4,522.1c0.7-0.4,1.3-0.9,1.8-1.5c0.4-0.4,0.7-0.8,0.8-1.3c0.1-0.5-0.2-1.1-0.8-1.2
			c-0.4-0.1-0.9,0.1-1.2,0.4c-0.3,0.3-0.4,0.7-0.5,1.1c-0.2,0.8-0.2,1.6-0.2,2.4c0.3-0.1,0.5-0.2,0.7-0.4"/>
		<path fill="#FFBC41" d="M-134.8,521.5c0.2-0.3,0.4-0.7,0.2-1c-0.1-0.2-0.3-0.3-0.6-0.3c-0.8-0.1-1.5,0.2-2.1,0.7
			c-0.3,0.2-1.3,1-1.3,1.3c0,0.3,0.4,0.3,0.7,0.3C-136.7,522.6-135.5,522.3-134.8,521.5z"/>
		<path fill="#FFBC41" d="M-144.5,520.8c0-0.4,0-0.9-0.3-1.3c-0.3-0.4-0.7-0.6-1.2-0.6c-0.5,0-0.9,0.2-1.2,0.6
			c-0.1,0.2-0.1,0.4-0.2,0.5c0,0.2,0,0.4,0,0.6c0.1,0.5,0.6,0.8,1,1c0.3,0.1,1.3,0.7,1.5,0.5c0.1-0.1,0-0.5,0.1-0.6
			C-144.7,521.4-144.6,521.1-144.5,520.8z"/>
		<path fill="#FFBC41" d="M-131.7,525.4c0.2-0.1,0.5-0.3,0.6-0.6c0.1-0.2,0.1-0.5-0.1-0.7c-0.1-0.1-0.2-0.2-0.3-0.2
			c-0.7-0.3-1.5-0.2-2.2,0.2c-0.6,0.4-1.2,0.9-1.5,1.5C-134.1,525.9-132.6,525.9-131.7,525.4z"/>
		<path fill="#FFBC41" d="M-133.4,529.8c0.3,0.1,0.6,0.1,0.9,0c0.3-0.1,0.6-0.3,0.6-0.6c0-0.2-0.1-0.4-0.3-0.5
			c-0.2-0.2-0.6-0.2-0.9-0.2c-0.3,0-0.6,0.1-0.9,0.2c-0.2,0.1-1.2,0.3-0.9,0.6C-134.7,529.6-133.7,529.7-133.4,529.8z"/>
		<path fill="#FFBC41" d="M-152.4,546c-0.5,0.7-1.1,1.4-1.2,2.2c-0.1,0.3-0.1,0.7,0.2,1c0.2,0.1,0.4,0.2,0.6,0.2
			c0.3,0,0.6,0,0.8-0.1c0.2-0.1,0.3-0.2,0.4-0.4c0.5-0.6,0.4-1.5,0.3-2.3c0-0.3,0-1.1-0.4-1.1C-151.9,545.4-152.2,545.8-152.4,546z"
			/>
		<path fill="#FFBC41" d="M-147.3,548.2c0,0.5,0.2,1,0.6,1.3c0.4,0.3,1,0.3,1.4,0c0.4-0.3,0.6-0.7,0.6-1.2c0-0.3-0.1-0.5-0.2-0.8
			c-0.3-0.7-0.5-1.4-0.9-2C-146.9,545.7-147.3,547.3-147.3,548.2z"/>
		<path fill="#FFBC41" d="M-140.7,544.4c0.1,0.4,0.2,0.7,0.4,1c0.2,0.3,0.5,0.6,0.9,0.7c0.2,0,0.4,0,0.5-0.1
			c0.1-0.1,0.2-0.2,0.3-0.3c0.2-0.4,0.2-0.9,0-1.3c-0.2-0.4-0.6-0.7-0.9-1c-0.3-0.2-0.9-1.1-1.2-0.9
			C-141.1,543-140.8,544-140.7,544.4z"/>
		<path fill="#FFBC41" d="M-133.6,534.4c0.5-0.1,1-0.4,1.3-0.8c0.1-0.1,0.1-0.3,0.1-0.5c-0.1-0.2-0.3-0.4-0.5-0.5
			c-0.7-0.3-1.5-0.2-2.1,0.1c-0.6,0.2-2.4,0.6-1.3,1.3C-135.5,534.5-134.4,534.6-133.6,534.4z"/>
	</g>
</g>
</svg>
